<svg xmlns="http://www.w3.org/2000/svg" xmlns:xlink="http://www.w3.org/1999/xlink" width="77.393" height="58.015" viewBox="0 0 77.393 58.015">
  <defs>
    <linearGradient id="linear-gradient" x1="0.5" x2="0.5" y2="1" gradientUnits="objectBoundingBox">
      <stop offset="0" stop-color="#05185e"/>
      <stop offset="1" stop-color="#4b86ac"/>
    </linearGradient>
  </defs>
  <path id="_10_Crown" data-name="10 Crown" d="M64.016,58.014H13.474a8.063,8.063,0,0,1-8.063-7L.041,10.65A4.838,4.838,0,0,1,8.1,6.457l9.031,8.37a4.838,4.838,0,0,0,7.1-.355l10.8-12.74a4.838,4.838,0,0,1,7.418,0l10.8,12.74a4.838,4.838,0,0,0,7,.419l9.031-8.483A4.838,4.838,0,0,1,77.352,10.6l-5.37,40.317A8.063,8.063,0,0,1,64.016,58.014Z" fill="url(#linear-gradient)"/>
</svg>
