<svg xmlns="http://www.w3.org/2000/svg" xmlns:xlink="http://www.w3.org/1999/xlink" width="2410" height="145" viewBox="0 0 2410 145">
  <defs>
    <linearGradient id="linear-gradient" x1="1.59" y1="0.404" x2="-1.316" y2="1.057" gradientUnits="objectBoundingBox">
      <stop offset="0" stop-color="#fff" stop-opacity="0.6"/>
      <stop offset="1" stop-color="#75C9DB"/>
    </linearGradient>
    <filter id="Rectangle_5346" x="0" y="0" width="2410" height="145" filterUnits="userSpaceOnUse">
      <feOffset input="SourceAlpha"/>
      <feGaussianBlur stdDeviation="49.5" result="blur"/>
      <feFlood flood-color="#80a5ac" flood-opacity="0.129" result="color"/>
      <feComposite operator="out" in="SourceGraphic" in2="blur"/>
      <feComposite operator="in" in="color"/>
      <feComposite operator="in" in2="SourceGraphic"/>
    </filter>
    <clipPath id="clip-path">
      <rect id="Rectangle_720" data-name="Rectangle 720" width="28.599" height="38.734" fill="#183573" stroke="#183573" stroke-width="1"/>
    </clipPath>
    <filter id="Rectangle_648" x="633.295" y="17.708" width="123.179" height="124.286" filterUnits="userSpaceOnUse">
      <feOffset dx="7" dy="7" input="SourceAlpha"/>
      <feGaussianBlur stdDeviation="10" result="blur-2"/>
      <feFlood flood-opacity="0.22"/>
      <feComposite operator="in" in2="blur-2"/>
      <feComposite in="SourceGraphic"/>
    </filter>
    <clipPath id="clip-path-2">
      <rect id="Rectangle_719" data-name="Rectangle 719" width="31.517" height="31.574" fill="#fff" stroke="#f5f5f5" stroke-width="0.5"/>
    </clipPath>
  </defs>
  <g id="Group_11383" data-name="Group 11383" transform="translate(-94 -3357)">
    <g data-type="innerShadowGroup">
      <path id="Rectangle_5346-2" data-name="Rectangle 5346" d="M32,0H2378a32,32,0,0,1,32,32V145a0,0,0,0,1,0,0H0a0,0,0,0,1,0,0V32A32,32,0,0,1,32,0Z" transform="translate(94 3357)" fill="url(#linear-gradient)"/>
      <g transform="matrix(1, 0, 0, 1, 94, 3357)" filter="url(#Rectangle_5346)">
        <path id="Rectangle_5346-3" data-name="Rectangle 5346" d="M32,0H2378a32,32,0,0,1,32,32V145a0,0,0,0,1,0,0H0a0,0,0,0,1,0,0V32A32,32,0,0,1,32,0Z" fill="#fff"/>
      </g>
      <g id="Rectangle_5346-4" data-name="Rectangle 5346" transform="translate(94 3357)" fill="none" stroke="rgba(117,201,219,0.3)" stroke-width="1">
        <path d="M32,0H2378a32,32,0,0,1,32,32V145a0,0,0,0,1,0,0H0a0,0,0,0,1,0,0V32A32,32,0,0,1,32,0Z" stroke="none"/>
        <path d="M32,.5H2378A31.5,31.5,0,0,1,2409.5,32V144.5a0,0,0,0,1,0,0H.5a0,0,0,0,1,0,0V32A31.5,31.5,0,0,1,32,.5Z" fill="none"/>
      </g>
    </g>
    <g id="Group_11382" data-name="Group 11382" transform="translate(115 3393.868)">
      <g id="Group_2309" data-name="Group 2309" transform="translate(1087.548 0)">
        <g id="Group_1633" data-name="Group 1633" transform="translate(-90 4.768)">
          <g id="Group_1626" data-name="Group 1626" transform="translate(0 0)">
            <g id="Rectangle_646" data-name="Rectangle 646" fill="none" stroke="#183573" stroke-width="3">
              <rect width="65.043" height="65.104" rx="32.522" stroke="none"/>
              <rect x="1.5" y="1.5" width="62.043" height="62.104" rx="31.022" fill="none"/>
            </g>
          </g>
          <g id="Group_1630" data-name="Group 1630" transform="translate(18.282 13.698)" style="mix-blend-mode: darken;isolation: isolate">
            <g id="Group_1629" data-name="Group 1629" clip-path="url(#clip-path)">
              <path id="Path_1467" data-name="Path 1467" d="M15.284,0c.754.126,1.518.21,2.261.385A14.064,14.064,0,0,1,26.1,6.229a13.951,13.951,0,0,1,2.345,5.942,14.123,14.123,0,0,1-1.946,9.415c-1.251,2.165-2.682,4.227-4.053,6.321q-3.155,4.816-6.347,9.607a3.383,3.383,0,0,1-.9.943,1.689,1.689,0,0,1-2.3-.433c-.608-.8-1.147-1.653-1.7-2.492q-4.08-6.173-8.154-12.349a18.288,18.288,0,0,1-2.85-6.841A12.626,12.626,0,0,1,.2,11.947,13.988,13.988,0,0,1,4.113,4.279,13.967,13.967,0,0,1,12.277.152c.347-.049.694-.1,1.04-.152ZM14.3,37.1c.141-.186.244-.308.332-.44q4.795-7.262,9.582-14.528a17.476,17.476,0,0,0,1.856-3.615,11.914,11.914,0,0,0,.486-7.147A12.451,12.451,0,0,0,20.73,3.479a12.233,12.233,0,0,0-6.912-1.757A12.191,12.191,0,0,0,8.077,3.354a12.411,12.411,0,0,0-5.758,7.058A11.387,11.387,0,0,0,1.88,16.1a16.348,16.348,0,0,0,2.54,6.079q4.758,7.241,9.544,14.463c.089.134.19.259.333.451" transform="translate(0)" fill="#183573" stroke="#183573" stroke-width="1"/>
              <path id="Path_1468" data-name="Path 1468" d="M58.678,66.247a7.572,7.572,0,1,1,7.569-7.553,7.566,7.566,0,0,1-7.569,7.553M58.689,52.8a5.881,5.881,0,1,0,5.875,5.9,5.9,5.9,0,0,0-5.875-5.9" transform="translate(-44.378 -44.371)" fill="#183573" stroke="#183573" stroke-width="1"/>
            </g>
          </g>
        </g>
        <text id="تهران_خیابان_شهید_دکتر_بهشتی_بعد_از_خیابان_کاووسی_فر_پلاک_۲۰۴_طبقۀ_اول" data-name="تهران، خیابان شهید دکتر بهشتی، بعد از خیابان کاووسی‌فر، پلاک ۲۰۴، طبقۀ اول" transform="translate(639.82 51.769)" fill="#183573" font-size="44" font-family="SegoeUI, Segoe UI" letter-spacing="-0.025em"><tspan x="-640.725" y="0">، طبقۀ اول</tspan><tspan y="0">۲۰۴</tspan><tspan y="0">تهران، خیابان شهید دکتر بهشتی، بعد از خیابان کاووسی‌فر، پلاک </tspan></text>
      </g>
      <line id="Line_217" data-name="Line 217" y2="65.104" transform="translate(969.483 6.16)" fill="none" stroke="#183573" stroke-linecap="round" stroke-width="2"/>
      <g id="Group_1938" data-name="Group 1938" transform="translate(635.295 0)">
        <text id="_۰۲۱-۴۱۳۹۲۰۰۰" data-name="۰۲۱-۴۱۳۹۲۰۰۰" transform="translate(184.276 47)" fill="#183573" font-size="44" font-family="SegoeUI, Segoe UI" letter-spacing="-0.025em"><tspan x="-105.572" y="0">۰۲۱-۴۱۳۹۲۰۰۰</tspan></text>
        <g id="Group_1632" data-name="Group 1632" transform="translate(0 3.84)">
          <g id="Group_1357" data-name="Group 1357" transform="translate(0 0)">
            <g transform="matrix(1, 0, 0, 1, -656.3, -40.71)" filter="url(#Rectangle_648)">
              <rect id="Rectangle_648-2" data-name="Rectangle 648" width="63.179" height="64.286" rx="31.59" transform="translate(656.3 40.71)" fill="#183573"/>
            </g>
          </g>
          <g id="Group_1628" data-name="Group 1628" transform="translate(15.133 17.053)">
            <g id="Group_1627" data-name="Group 1627" clip-path="url(#clip-path-2)">
              <path id="Path_1462" data-name="Path 1462" d="M24.065,31.574c-.451-.075-.9-.135-1.352-.226a19.374,19.374,0,0,1-6.658-2.892,43.418,43.418,0,0,1-7.194-6,45.4,45.4,0,0,1-5.006-5.872A21.83,21.83,0,0,1,.545,10.07C.319,9.277.219,8.447.06,7.635.044,7.556.02,7.478,0,7.4V5.735c.042-.251.089-.5.126-.754A3.892,3.892,0,0,1,1.778,2.049C2.921,1.321,4.119.679,5.293,0h.739A2.818,2.818,0,0,1,7.559,1.339C8.8,3.236,10.065,5.118,11.322,7a1.912,1.912,0,0,1-.469,2.874c-.67.525-1.343,1.047-2.013,1.573-.543.426-.594.732-.273,1.353a20.328,20.328,0,0,0,3.374,4.6,32.426,32.426,0,0,0,4.455,4.1c.795.574,1.654,1.061,2.5,1.559a.773.773,0,0,0,1.108-.252c.577-.734,1.146-1.475,1.72-2.212a1.87,1.87,0,0,1,2.688-.443q3.087,2.05,6.164,4.116a1.874,1.874,0,0,1,.605,2.7c-.46.776-.951,1.535-1.388,2.324a4.117,4.117,0,0,1-3.255,2.141c-.251.034-.5.084-.75.126Zm.515-1.023c.591-.05,1.184-.081,1.772-.154a3.125,3.125,0,0,0,2.524-1.631c.411-.745.869-1.463,1.306-2.193.416-.7.34-1.045-.323-1.489l-5.906-3.947c-.662-.442-1-.387-1.485.241-.534.69-1.064,1.382-1.6,2.068a1.86,1.86,0,0,1-2.561.525c-.476-.261-.951-.525-1.411-.812a26.058,26.058,0,0,1-4.5-3.758,24.719,24.719,0,0,1-4.776-6.11,1.913,1.913,0,0,1,.566-2.68c.705-.546,1.412-1.092,2.111-1.647a.816.816,0,0,0,.226-1.235Q8.446,4.6,6.36,1.477a.813.813,0,0,0-1.179-.254Q3.9,1.984,2.626,2.758a2.84,2.84,0,0,0-1.34,1.867,10.234,10.234,0,0,0,.405,5.6,21.76,21.76,0,0,0,3.081,5.82,48.125,48.125,0,0,0,6.546,7.3,32.81,32.81,0,0,0,7.858,5.659,14.429,14.429,0,0,0,5.405,1.544" fill="#fff" stroke="#f5f5f5" stroke-width="0.5"/>
              <path id="Path_1464" data-name="Path 1464" d="M235.407,64.19c0,.072,0,.2,0,.319a.523.523,0,0,1-.5.579.544.544,0,0,1-.55-.545c-.057-.571-.077-1.15-.186-1.71a8.735,8.735,0,0,0-3.18-5.25,8.553,8.553,0,0,0-3.741-1.76c-.459-.093-.932-.118-1.4-.171-.142-.016-.287-.011-.428-.035a.517.517,0,0,1-.5-.577.527.527,0,0,1,.6-.481,13.945,13.945,0,0,1,1.527.145,10.007,10.007,0,0,1,8.358,9.486" transform="translate(-206.046 -52.497)" fill="#fff" stroke="#f5f5f5" stroke-width="0.5"/>
              <path id="Path_1465" data-name="Path 1465" d="M225.8,95.684a6.809,6.809,0,0,1,6.27,5.372,9.055,9.055,0,0,1,.147,1.4.509.509,0,0,1-.507.571.518.518,0,0,1-.533-.552,5.854,5.854,0,0,0-1.243-3.532,5.636,5.636,0,0,0-4.282-2.205c-.527-.026-.792-.211-.774-.579s.3-.533.83-.485l.092.008" transform="translate(-206.009 -90.439)" fill="#fff" stroke="#f5f5f5" stroke-width="0.5"/>
              <path id="Path_1466" data-name="Path 1466" d="M225.646,136.317a3.739,3.739,0,0,1,3.454,3.4,2.081,2.081,0,0,1,.006.277.539.539,0,0,1-.509.552.5.5,0,0,1-.534-.481,3.126,3.126,0,0,0-.508-1.557,2.635,2.635,0,0,0-2.065-1.107.533.533,0,0,1-.567-.42.468.468,0,0,1,.252-.569,1.885,1.885,0,0,1,.471-.093" transform="translate(-206.037 -127.954)" fill="#fff" stroke="#f5f5f5" stroke-width="0.5"/>
            </g>
          </g>
        </g>
      </g>
      <line id="Line_39" data-name="Line 39" y2="65.104" transform="translate(604.052 6.16)" fill="none" stroke="#183573" stroke-linecap="round" stroke-width="2"/>
      <g id="Group_1939" data-name="Group 1939" transform="translate(0 0.552)">
        <text id="www.jahangostarpars.com" transform="translate(307.749 47)" fill="#183573" font-size="44" font-family="SegoeUI, Segoe UI" letter-spacing="-0.025em"><tspan x="-242.339" y="0">www.jahangostarpars.com</tspan></text>
        <g id="Group_1929" data-name="Group 1929" transform="translate(0 3.288)">
          <g id="Group_1357-2" data-name="Group 1357" transform="translate(0 0)">
            <g id="Rectangle_648-3" data-name="Rectangle 648" fill="none" stroke="#183573" stroke-width="3">
              <rect width="64.869" height="66.005" rx="32.434" stroke="none"/>
              <rect x="1.5" y="1.5" width="61.869" height="63.005" rx="30.934" fill="none"/>
            </g>
            <g id="Group_1937" data-name="Group 1937" transform="translate(9.105 9.541)">
              <path id="Path_1704" data-name="Path 1704" d="M1.074,170.771H-1.66c-.433-.056-.865-.116-1.3-.169a22.594,22.594,0,0,1-14.624-7.557,22.574,22.574,0,0,1-5.562-20.158,22.247,22.247,0,0,1,11.5-15.808A22.147,22.147,0,0,1,7.3,125.426c8.471,3.055,13.578,9.155,15.371,17.995.177.873.247,1.768.367,2.653V148.9a2.487,2.487,0,0,0-.076.351A21.835,21.835,0,0,1,20.85,157.3,22.919,22.919,0,0,1,3.681,170.417C2.821,170.581,1.943,170.655,1.074,170.771Zm-13.844-24.1a41.108,41.108,0,0,1,1.544-10.637l-5.945-2.372a21.737,21.737,0,0,0-4.917,13.009Zm24.892-.006H21.45a21.711,21.711,0,0,0-4.917-13l-5.949,2.362A40.518,40.518,0,0,1,12.121,146.668Zm4.411,14.6a21.724,21.724,0,0,0,4.916-12.983H12.117a40.361,40.361,0,0,1-1.531,10.618ZM-11.224,158.9a41.024,41.024,0,0,1-1.547-10.62h-9.318A21.717,21.717,0,0,0-17.17,161.27Zm11.7-21.432v9.194H10.553a38.5,38.5,0,0,0-1.5-10.22ZM-9.7,136.441a38.329,38.329,0,0,0-1.485,10.233h10.05v-9.206ZM.471,157.629a41.954,41.954,0,0,1,8.551,1,38.8,38.8,0,0,0,1.527-10.34H.471Zm-1.609-.006v-9.342H-11.191a38.534,38.534,0,0,0,1.534,10.354A41.784,41.784,0,0,1-1.137,157.623Zm9.729-22.83c-.52-1.133-.971-2.24-1.524-3.293a12.931,12.931,0,0,0-3.488-4.377,6.581,6.581,0,0,0-3.1-1.378V135.76A39.6,39.6,0,0,0,8.591,134.793ZM.475,169.151a5.887,5.887,0,0,0,3.135-1.364c2.491-1.993,3.8-4.745,4.933-7.655a38.619,38.619,0,0,0-8.067-.946Zm-1.6-43.393c-.1.01-.176.011-.249.026a7.485,7.485,0,0,0-3.932,2.324,17.6,17.6,0,0,0-3.446,5.631c-.141.345-.267.7-.41,1.068a39.408,39.408,0,0,0,8.037.956Zm-8.039,34.372a20.6,20.6,0,0,0,3.107,5.845A9.752,9.752,0,0,0-3.6,168.247a5.82,5.82,0,0,0,2.468.933v-9.993A38.763,38.763,0,0,0-9.169,160.129Zm3.29-33.687a21.478,21.478,0,0,0-10.167,5.939,24.828,24.828,0,0,0,5.334,2.05A20.1,20.1,0,0,1-5.879,126.442Zm15.957,7.988a24.687,24.687,0,0,0,5.306-2.048c-2.415-2.7-7.641-5.74-10.2-5.938A19.535,19.535,0,0,1,10.078,134.43ZM5.191,168.553a21.974,21.974,0,0,0,10.217-6,25.21,25.21,0,0,0-5.3-2.036C8.229,164.923,8.514,164.559,5.191,168.553ZM-6,168.51c-.923-1.239-1.948-2.429-2.755-3.751s-1.395-2.775-2.1-4.213a24.881,24.881,0,0,0-5.192,2.012A21.641,21.641,0,0,0-6,168.51Z" transform="translate(23.626 -124.03)" fill="#183573" stroke="#183573" stroke-width="1"/>
            </g>
          </g>
        </g>
      </g>
    </g>
  </g>
</svg>
