<svg xmlns="http://www.w3.org/2000/svg" width="45" height="45" viewBox="0 0 45 45">
  <g id="Group_1598" data-name="Group 1598" transform="translate(-535.529 -356.855)">
    <path id="Path_1468" data-name="Path 1468" d="M22.5,0h0a22.5,22.5,0,0,1,0,45h0a22.5,22.5,0,0,1,0-45Z" transform="translate(535.529 356.855)" fill="#ff5454"/>
    <g id="Path" transform="translate(550.529 371.855)" fill="#fff">
      <path d="M 13.5 13.5 L 0.5 13.5 L 0.5 0.5 L 13.5 0.5 L 13.5 13.5 Z" stroke="none"/>
      <path d="M 1 1 L 1 13 L 13 13 L 13 1 L 1 1 M 0 0 L 14 0 L 14 14 L 0 14 L 0 0 Z" stroke="none" fill="#6fd8dc"/>
    </g>
    <g id="Path-2" data-name="Path" transform="translate(548.529 369.855)" fill="#ff5454">
      <path d="M 16 17 L 2 17 C 1.448600053787231 17 1 16.55139923095703 1 16 L 1 2 C 1 1.448600053787231 1.448600053787231 1 2 1 L 16 1 C 16.55139923095703 1 17 1.448600053787231 17 2 L 17 16 C 17 16.55139923095703 16.55139923095703 17 16 17 Z" stroke="none"/>
      <path d="M 2.00358772277832 2 C 2.002348899841309 2.001035690307617 2.001035690307617 2.002348899841309 2 2.00358772277832 L 2.000009536743164 15.99642372131348 C 2.001044273376465 15.99765968322754 2.002352714538574 15.99896812438965 2.00358772277832 16 L 15.99642372131348 15.99999046325684 C 15.99765968322754 15.99895572662354 15.99896812438965 15.99764728546143 16 15.99641227722168 L 15.99999046325684 2.003576278686523 C 15.99895572662354 2.002340316772461 15.99764728546143 2.001031875610352 15.99641227722168 2 L 2.00358772277832 2 M 2 0 L 16 0 C 17.10000038146973 0 18 0.8999996185302734 18 2 L 18 16 C 18 17.10000038146973 17.10000038146973 18 16 18 L 2 18 C 0.8999996185302734 18 0 17.10000038146973 0 16 L 0 2 C 0 0.8999996185302734 0.8999996185302734 0 2 0 Z" stroke="none" fill="#c8e7e8"/>
    </g>
  </g>
</svg>
