<svg xmlns="http://www.w3.org/2000/svg" width="45" height="45" viewBox="0 0 45 45">
  <g id="Group_1598" data-name="Group 1598" transform="translate(-535.529 -356.855)">
    <rect id="Rectangle_345" data-name="Rectangle 345" width="45" height="45" rx="22.5" transform="translate(535.529 356.855)" fill="#37b3b8"/>
    <g id="Path" transform="translate(550.529 371.855)" fill="#fff">
      <path d="M 13.5 13.5 L 0.5 13.5 L 0.5 0.5 L 13.5 0.5 L 13.5 13.5 Z" stroke="none"/>
      <path d="M 1 1 L 1 13 L 13 13 L 13 1 L 1 1 M 0 0 L 14 0 L 14 14 L 0 14 L 0 0 Z" stroke="none" fill="#6fd8dc"/>
    </g>
    <path id="Path-2" data-name="Path" d="M16,0H2A2.006,2.006,0,0,0,0,2V16a2.006,2.006,0,0,0,2,2H16a2.006,2.006,0,0,0,2-2V2A2.006,2.006,0,0,0,16,0Z" transform="translate(548.529 369.855)" fill="#fff"/>
  </g>
</svg>
