<svg xmlns="http://www.w3.org/2000/svg" width="45" height="45" viewBox="0 0 45 45">
  <g id="Group_1615" data-name="Group 1615" transform="translate(-535.529 -356.855)">
    <g id="Rectangle_345" data-name="Rectangle 345" transform="translate(535.529 356.855)" fill="#fff" stroke="#37b3b8" stroke-width="1">
      <rect width="45" height="45" rx="22.5" stroke="none"/>
      <rect x="0.5" y="0.5" width="44" height="44" rx="22" fill="none"/>
    </g>
    <g id="_Color" data-name=" ↳Color" transform="translate(548.529 369.855)" fill="rgba(0,0,0,0.38)" stroke-miterlimit="10">
      <path d="M 16.00020027160645 17.5 L 1.999799966812134 17.5 C 1.172809958457947 17.5 0.5 16.82719039916992 0.5 16.00020027160645 L 0.5 1.999799966812134 C 0.5 1.172809958457947 1.172809958457947 0.5 1.999799966812134 0.5 L 16.00020027160645 0.5 C 16.82719039916992 0.5 17.5 1.172809958457947 17.5 1.999799966812134 L 17.5 16.00020027160645 C 17.5 16.82719039916992 16.82719039916992 17.5 16.00020027160645 17.5 Z M 1.499799966812134 1.499799966812134 L 1.499799966812134 1.999799966812134 L 1.499799966812134 16.00020027160645 L 1.499799966812134 16.50020027160645 L 1.999799966812134 16.50020027160645 L 16.00020027160645 16.50020027160645 L 16.50020027160645 16.50020027160645 L 16.50020027160645 16.00020027160645 L 16.50020027160645 1.999799966812134 L 16.50020027160645 1.499799966812134 L 16.00020027160645 1.499799966812134 L 1.999799966812134 1.499799966812134 L 1.499799966812134 1.499799966812134 Z" stroke="none"/>
      <path d="M 16.00020027160645 18 L 1.999799966812134 18 C 0.8971099853515625 18 0 17.10289001464844 0 16.00020027160645 L 0 1.999799966812134 C 0 0.8971099853515625 0.8971099853515625 0 1.999799966812134 0 L 16.00020027160645 0 C 17.10289001464844 0 18 0.8971099853515625 18 1.999799966812134 L 18 16.00020027160645 C 18 17.10289001464844 17.10289001464844 18 16.00020027160645 18 Z M 1.999799966812134 1.999799966812134 L 1.999799966812134 16.00020027160645 L 16.00020027160645 16.00020027160645 L 16.00020027160645 1.999799966812134 L 1.999799966812134 1.999799966812134 Z" stroke="none" fill="#f9f8f7"/>
    </g>
    <circle id="_States" data-name="💡States" cx="21.5" cy="21.5" r="21.5" transform="translate(536.529 357.855)" fill="#f5f5f5"/>
    <g id="Light_Selection_Controls_1._Checkboxes_2_States_" data-name="Light 🌕/ Selection Controls/1. Checkboxes/(2 States)" transform="translate(545.529 366.855)">
      <g id="icon_toggle_check_box_24px" data-name="icon/toggle/check_box_24px">
        <rect id="Boundary" width="25" height="25" fill="none"/>
        <path id="_Color-2" data-name=" ↳Color" d="M16.889,19H2.111A2.113,2.113,0,0,1,0,16.889V2.111A2.113,2.113,0,0,1,2.111,0H16.889A2.113,2.113,0,0,1,19,2.111V16.889A2.113,2.113,0,0,1,16.889,19ZM3.6,8.011h0L2.111,9.5l5.278,5.278,9.5-9.5L15.4,3.779,7.389,11.79,3.6,8.011Z" transform="translate(3 3)" fill="#37b3b8"/>
      </g>
    </g>
  </g>
</svg>
