<svg xmlns="http://www.w3.org/2000/svg" width="23.142" height="23.142" viewBox="0 0 23.142 23.142">
  <path id="_27_Question" data-name="27 Question" d="M15,26.571A11.572,11.572,0,1,1,26.571,15,11.584,11.584,0,0,1,15,26.571Zm0-6.749a.964.964,0,1,0,.965.964A.965.965,0,0,0,15,19.822Zm-.015-9.644h.045a2.212,2.212,0,0,1,2.141,2.136,2.167,2.167,0,0,1-1.364,2.05,2.721,2.721,0,0,0-1.769,2.526v.52a.964.964,0,1,0,1.928,0v-.52a.814.814,0,0,1,.554-.733H16.5A4.1,4.1,0,0,0,15.058,8.25H15a4.1,4.1,0,0,0-4.1,4.1.965.965,0,0,0,1.929,0,2.173,2.173,0,0,1,.645-1.543A2.141,2.141,0,0,1,14.984,10.178Z" transform="translate(-3.429 -3.429)" fill="#666"/>
</svg>
