<svg id="contract" xmlns="http://www.w3.org/2000/svg" width="27.656" height="27.656" viewBox="0 0 27.656 27.656">
  <path id="_5_Paper_2" data-name="5 Paper_2" d="M17.074,27.656H3.292A3.3,3.3,0,0,1,0,24.365V3.292A3.3,3.3,0,0,1,3.292,0H24.365a3.265,3.265,0,0,1,2.328.964,3.315,3.315,0,0,1,.964,2.328V17.074A3.27,3.27,0,0,1,26.7,19.4l-7.3,7.3A3.27,3.27,0,0,1,17.074,27.656Zm2.68-11.2a3.3,3.3,0,0,0-3.293,3.293v4.34a.66.66,0,0,0,.659.655.663.663,0,0,0,.467-.195l6.967-6.967a.659.659,0,0,0-.46-1.127Z" transform="translate(0 0)" fill="#54c4e0"/>
</svg>
