<svg xmlns="http://www.w3.org/2000/svg" width="22.737" height="32.537" viewBox="0 0 22.737 32.537">
  <g id="device" style="isolation: isolate">
    <path id="_10_Phone" data-name="10 Phone" d="M18.474,32.537H4.263A4.173,4.173,0,0,1,0,28.469V4.066A4.173,4.173,0,0,1,4.263,0H18.474a4.173,4.173,0,0,1,4.263,4.066v24.4A4.173,4.173,0,0,1,18.474,32.537ZM4.263,3.389a.7.7,0,0,0-.711.676v24.4a.7.7,0,0,0,.711.678H18.474a.7.7,0,0,0,.709-.678V4.066a.694.694,0,0,0-.709-.676H16.342a.7.7,0,0,0-.711.676v.678A1.391,1.391,0,0,1,14.211,6.1H8.526A1.392,1.392,0,0,1,7.1,4.744V4.066A.694.694,0,0,0,6.4,3.389Z" transform="translate(0 0)" fill="#54c4e0"/>
  </g>
</svg>
