<svg xmlns="http://www.w3.org/2000/svg" width="20.857" height="28.143" viewBox="0 0 20.857 28.143">
  <path id="educate" d="M4.345,5.863a1.447,1.447,0,0,1-1.079-.484A1.483,1.483,0,0,1,2.9,4.245a1.512,1.512,0,0,1,1.53-1.313H17.01a1.512,1.512,0,0,0,1.53-1.313A1.477,1.477,0,0,0,18.173.482,1.441,1.441,0,0,0,17.091,0H4.345A4.361,4.361,0,0,0,0,4.1H0V25.211a2.949,2.949,0,0,0,.848,2.073,2.88,2.88,0,0,0,2.048.859H17.96a2.914,2.914,0,0,0,2.9-2.932V8.795a2.914,2.914,0,0,0-2.9-2.932Z" fill="#54c4e0"/>
</svg>
