<svg xmlns="http://www.w3.org/2000/svg" width="23.933" height="29.973" viewBox="0 0 23.933 29.973">
  <g id="logout" style="isolation: isolate">
    <path id="Combined_Shape" data-name="Combined Shape" d="M7.251,29.973A3.8,3.8,0,0,1,3.4,26.226V24.666a1.6,1.6,0,0,1,3.208,0v1.561a.633.633,0,0,0,.642.624H20.084a.633.633,0,0,0,.642-.624V3.747a.633.633,0,0,0-.642-.624H7.251a.633.633,0,0,0-.642.624V5.308A1.583,1.583,0,0,1,5,6.868a1.626,1.626,0,0,1-1.134-.457,1.538,1.538,0,0,1-.47-1.1V3.747A3.8,3.8,0,0,1,7.251,0H20.084a3.8,3.8,0,0,1,3.849,3.747v22.48a3.8,3.8,0,0,1-3.849,3.747ZM5.173,20.544l-4.8-4.677a1.225,1.225,0,0,1,0-1.761l4.8-4.677a1.31,1.31,0,0,1,1.4-.275,1.248,1.248,0,0,1,.794,1.155v2.179h6.372a1.267,1.267,0,0,1,1.283,1.249v2.5a1.267,1.267,0,0,1-1.283,1.249H7.367v2.179a1.248,1.248,0,0,1-.794,1.155,1.311,1.311,0,0,1-1.4-.275Z" transform="translate(0 0)" fill="#ff8080"/>
  </g>
</svg>
