<svg xmlns="http://www.w3.org/2000/svg" width="29.165" height="28.997" viewBox="0 0 29.165 28.997">
  <g id="message" transform="translate(0.661 0.5)" style="isolation: isolate">
    <path id="_14_Comment_5" data-name="14 Comment_5" d="M13.99,28h0A13.983,13.983,0,0,1,6.6,25.884l-4.726,2A1.333,1.333,0,0,1,.123,26.138l2-4.726A14,14,0,0,1,13.981,0h.009a14,14,0,1,1,0,28ZM7.982,15.666a1.333,1.333,0,0,0,0,2.666h8.666a1.333,1.333,0,0,0,0-2.666Zm0-6a1.333,1.333,0,0,0,0,2.666h12a1.333,1.333,0,1,0,0-2.666Z" transform="translate(0 0)" fill="#54c4e0" stroke="rgba(0,0,0,0)" stroke-width="1"/>
  </g>
</svg>
