<svg xmlns="http://www.w3.org/2000/svg" width="35.379" height="35.359" viewBox="0 0 35.379 35.359">
  <path id="order" d="M24.406,31.991a3.364,3.364,0,1,1,3.363,3.368A3.367,3.367,0,0,1,24.406,31.991Zm-15.142,0a3.365,3.365,0,1,1,3.365,3.368A3.368,3.368,0,0,1,9.264,31.991Zm.665-9.529L6.32,4.606a.428.428,0,0,0-.42-.4H2.116a2.1,2.1,0,0,1-2.1-2.322A2.188,2.188,0,0,1,2.232,0H5.9a4.617,4.617,0,0,1,4.541,3.814l.422,2.079H31.135a4.206,4.206,0,0,1,4.2,4.782L33.884,21.046a4.207,4.207,0,0,1-3.851,3.621L14.363,25.828q-.158.012-.315.012A4.208,4.208,0,0,1,9.929,22.462Z" fill="#54c4e0"/>
</svg>
