<svg xmlns="http://www.w3.org/2000/svg" width="26.545" height="29.199" viewBox="0 0 26.545 29.199">
  <g id="people" style="isolation: isolate">
    <path id="Rectangle_3" data-name="Rectangle 3" d="M9,29.2a9.01,9.01,0,0,1-9-9V9A9.01,9.01,0,0,1,9,0h8.545a9.01,9.01,0,0,1,9,9V20.2a9.01,9.01,0,0,1-9,9ZM2.275,9.137V20.063a7.008,7.008,0,0,0,7,7h7.994a7.008,7.008,0,0,0,7-7V9.137a7.008,7.008,0,0,0-7-7H9.275A7.008,7.008,0,0,0,2.275,9.137Zm3.7,11.623A1.79,1.79,0,0,1,5.8,18.778,8.5,8.5,0,0,1,13.272,14.6a8.5,8.5,0,0,1,7.475,4.179,1.79,1.79,0,0,1-.174,1.982,9.551,9.551,0,0,1-14.6,0ZM9.392,8.927a3.88,3.88,0,1,1,3.881,3.881A3.881,3.881,0,0,1,9.392,8.927Z" transform="translate(0 0)" fill="#54c4e0"/>
  </g>
</svg>
