<svg xmlns="http://www.w3.org/2000/svg" width="28.81" height="28.845" viewBox="0 0 28.81 28.845">
  <g id="repair" transform="translate(0.508 0.529)" style="isolation: isolate">
    <path id="Path_56" data-name="Path 56" d="M79.31,564.405a4.8,4.8,0,0,0,1.175-.018,3.677,3.677,0,0,0,1.516-.63c1.094-.976,2.1-2.048,3.132-3.1a1.328,1.328,0,0,1,2.414.813,10.062,10.062,0,1,1-8.1-8.211,1.6,1.6,0,0,1,1.09.834,1.721,1.721,0,0,1-.353,1.4c-1.008,1.135-2.164,2.139-3.177,3.271a2.846,2.846,0,0,0-.618,1.515,21.312,21.312,0,0,0-.022,2.751,1.264,1.264,0,0,0,1.374,1.372C78.26,564.418,78.785,564.4,79.31,564.405Z" transform="translate(-59.882 -553.075)" fill="#54c4e0" stroke="rgba(0,0,0,0)" stroke-width="1"/>
    <path id="Path_57" data-name="Path 57" d="M39.7,613.037a13.007,13.007,0,0,0,6.884,6.733c-.406.332-.726.553-1,.822-2.064,2.05-4.1,4.126-6.18,6.161a4.827,4.827,0,0,1-8.2-2.547,4.159,4.159,0,0,1,1-3.815C34.641,617.9,37.172,615.508,39.7,613.037Z" transform="translate(-31.111 -600.426)" fill="#54c4e0" stroke="rgba(0,0,0,0)" stroke-width="1"/>
  </g>
</svg>
