<svg xmlns="http://www.w3.org/2000/svg" width="23.314" height="25.449" viewBox="0 0 23.314 25.449">
  <path id="setting" d="M11.657,25.449a12.238,12.238,0,0,1-2.236-.207,1.048,1.048,0,0,1-.841-1.06v-.894a1.059,1.059,0,0,0-.631-.975A9.8,9.8,0,0,1,5.477,20.83a1,1,0,0,0-1.139-.079l-.749.451a1,1,0,0,1-.509.14,1.013,1.013,0,0,1-.783-.374A12.431,12.431,0,0,1,1.132,19.3c-.08-.138-.171-.3-.25-.451a12.465,12.465,0,0,1-.827-1.891A1.08,1.08,0,0,1,.512,15.7l.745-.445a1.065,1.065,0,0,0,.513-1.06,10.578,10.578,0,0,1,0-2.945,1.068,1.068,0,0,0-.513-1.06L.512,9.747a1.077,1.077,0,0,1-.456-1.26,12.356,12.356,0,0,1,.821-1.9c.083-.162.178-.326.252-.451A12.411,12.411,0,0,1,2.291,4.477,1.014,1.014,0,0,1,3.073,4.1a1,1,0,0,1,.516.145l.754.445a1,1,0,0,0,1.139-.079A9.808,9.808,0,0,1,7.949,3.136,1.053,1.053,0,0,0,8.6,2.162v-.9A1.048,1.048,0,0,1,9.442.207a12.21,12.21,0,0,1,4.472,0,1.046,1.046,0,0,1,.84,1.06v.9a1.059,1.059,0,0,0,.631.975,9.83,9.83,0,0,1,2.452,1.478,1,1,0,0,0,1.139.079l.661-.392a1.034,1.034,0,0,1,.6-.193,1.046,1.046,0,0,1,.788.363,12.306,12.306,0,0,1,1.139,1.663c.073.125.168.289.252.451a12.324,12.324,0,0,1,.825,1.891,1.074,1.074,0,0,1-.456,1.271l-.646.387a1.113,1.113,0,0,0-.6,1.118,10.577,10.577,0,0,1,0,2.945,1.065,1.065,0,0,0,.513,1.06l.75.445a1.08,1.08,0,0,1,.456,1.261,12.46,12.46,0,0,1-.816,1.9c-.07.135-.155.287-.252.449a12.408,12.408,0,0,1-1.165,1.665,1,1,0,0,1-1.3.227l-.749-.449a1,1,0,0,0-1.124.079,9.807,9.807,0,0,1-2.466,1.478,1.056,1.056,0,0,0-.652.975v.894a1.048,1.048,0,0,1-.841,1.06A12.238,12.238,0,0,1,11.657,25.449Zm0-17.492a4.7,4.7,0,0,0-4.615,4.767,4.7,4.7,0,0,0,4.615,4.768,4.514,4.514,0,0,0,3.265-1.4,4.818,4.818,0,0,0,1.352-3.372A4.7,4.7,0,0,0,11.656,7.958Z" fill="#54c4e0"/>
</svg>
