<svg xmlns="http://www.w3.org/2000/svg" xmlns:xlink="http://www.w3.org/1999/xlink" width="38.419" height="38.14" viewBox="0 0 38.419 38.14">
  <defs>
    <linearGradient id="linear-gradient" x1="1.836" y1="1.621" x2="0.126" y2="0.191" gradientUnits="objectBoundingBox">
      <stop offset="0" stop-color="#75c9db"/>
      <stop offset="1" stop-color="#04165d"/>
    </linearGradient>
  </defs>
  <path id="aparat-icon" d="M1055.4,795.929a4.576,4.576,0,0,1,1.325-3.2.312.312,0,0,0,.022-.023l.252-.24a5.024,5.024,0,0,1,1.054-.689,4.631,4.631,0,0,1,3.745-.1,4.7,4.7,0,0,1,1.4.882,4.928,4.928,0,0,1,.989,1.293,4.58,4.58,0,0,1-2.119,6.192,4.4,4.4,0,0,1-2.238.447,4.616,4.616,0,0,1-4.3-3.535,5.714,5.714,0,0,1-.132-1.03Zm-18.749-.045a5.36,5.36,0,0,0,.791,3.191,5.586,5.586,0,0,0,1.652,1.795,6.593,6.593,0,0,0,2.434,1.01c.9.238,1.816.5,2.73.716l-1.163-1.03a17.67,17.67,0,0,1-5.2-9.071,6.181,6.181,0,0,1-.167-.952c-.147.107-.052-.014-.111.2a26.866,26.866,0,0,0-.964,4.138Zm4.743-18.256c.15-.04.063-.009.156-.114l.908-1.017c.182-.181.37-.4.561-.558a2.719,2.719,0,0,0,.289-.247,16.93,16.93,0,0,1,1.878-1.478,3.649,3.649,0,0,1,.345-.236c.249-.153.453-.28.694-.424a17.851,17.851,0,0,1,5.659-2.127,3.4,3.4,0,0,0,.92-.2,36.19,36.19,0,0,0-4.608-1.075,5.682,5.682,0,0,0-3.707,1.081c-.085.062-.156.1-.238.164-.1.079-.129.117-.242.206a3.611,3.611,0,0,0-.433.417c-1.189,1.35-1.323,2.535-1.8,4.236l-.377,1.369Zm16.511,28.5c.087.118.069.084.23.127.117.032.166.039.29.069a30.022,30.022,0,0,0,4.179.967,5.844,5.844,0,0,0,5.146-2.55,7.217,7.217,0,0,0,1.01-2.571c.12-.477.244-.945.381-1.407.065-.222.118-.462.19-.706a5.453,5.453,0,0,1,.208-.732c-.174.047-.271.307-.527.593-.189.212-.364.4-.541.623a18.9,18.9,0,0,1-2.416,2.193,17.746,17.746,0,0,1-7.148,3.233,5.4,5.4,0,0,1-1,.16Zm14.991-19.6h.089a2.712,2.712,0,0,1,.14-.621l.482-1.8c.632-2.128.942-3.749-.3-5.821a5.727,5.727,0,0,0-2.923-2.4c-.508-.188-2.812-.779-3.52-.955a3.634,3.634,0,0,0-.725-.17l.615.5c.488.455.638.548,1.208,1.118l.561.6a16.317,16.317,0,0,1,1.992,2.661,13.685,13.685,0,0,1,.8,1.482,18.04,18.04,0,0,1,.981,2.509c.091.3.187.588.259.9a10.518,10.518,0,0,1,.34,1.987ZM1048.419,798.3a4.843,4.843,0,0,1-3.234-1.286,4.594,4.594,0,0,1-1-5.232,5.648,5.648,0,0,1,.388-.687l.5-.616a5.44,5.44,0,0,1,1.287-.906,4.738,4.738,0,0,1,4.744.407,4.548,4.548,0,0,1,1.516,5.584,4.49,4.49,0,0,1-1.235,1.628,4.822,4.822,0,0,1-2.965,1.108Zm4.832-9.442a2.321,2.321,0,0,0,.4,1.177,2.063,2.063,0,0,0,3.721-1.222,2.1,2.1,0,0,0-.924-1.671,2.066,2.066,0,0,0-3.193,1.716Zm4.519-5.1a4.864,4.864,0,0,1,1.352-3.257,4.7,4.7,0,0,1,5.108-.964l.731.386a4.617,4.617,0,0,1,2.073,3.612,4.53,4.53,0,0,1-1.6,3.683,4.837,4.837,0,0,1-1,.658,4.726,4.726,0,0,1-4.385-.18,4.986,4.986,0,0,1-1.108-.9l-.107-.117a5.007,5.007,0,0,1-.649-1.056,4.8,4.8,0,0,1-.417-1.866Zm-6.981,2.371-1.146-.145a4.7,4.7,0,0,1-3.03-2.39,4.624,4.624,0,0,1-.06-3.984,4.532,4.532,0,0,1,2.177-2.207,4.626,4.626,0,0,1,6.544,5.111,4.448,4.448,0,0,1-1.244,2.246,4.649,4.649,0,0,1-1.345.937,5.146,5.146,0,0,1-1.9.432Zm-11.678,2.6a18.818,18.818,0,0,0,.413,3.569l.443,1.57c.178.468.358,1,.575,1.438.11.221.2.456.313.671.063.121.117.192.18.313a16.044,16.044,0,0,0,5.228,5.779c.1.071.188.113.3.19.223.15.409.257.635.394l1.326.688c.485.2.881.393,1.4.573s.992.316,1.557.457a16.549,16.549,0,0,0,10.8-1.026l1.9-1.05a16.257,16.257,0,0,0,4.184-3.826,17.709,17.709,0,0,0,1.212-1.83c.072-.119.1-.193.174-.319s.108-.173.179-.313a16.821,16.821,0,0,0,1.338-3.674,18.246,18.246,0,0,0,.422-3.606,16.423,16.423,0,0,0-1.433-6.578,15.942,15.942,0,0,0-2.313-3.683,19.063,19.063,0,0,0-1.345-1.423,14.9,14.9,0,0,0-1.773-1.455l-.592-.393a16.393,16.393,0,0,0-1.961-1.083,15.367,15.367,0,0,0-2.952-1.03,16.557,16.557,0,0,0-7.8-.009c-.537.135-1.033.276-1.558.455a17.557,17.557,0,0,0-2.727,1.255,16.7,16.7,0,0,0-2.364,1.662l-.531.455a20.821,20.821,0,0,0-1.457,1.54,15.939,15.939,0,0,0-3.344,6.679A18.3,18.3,0,0,0,1039.111,788.724Z" transform="translate(-1036.15 -769.654)" stroke="rgba(0,0,0,0)" stroke-width="1" fill-rule="evenodd" fill="url(#linear-gradient)"/>
</svg>
