<svg id="blueSendMessage-icon" xmlns="http://www.w3.org/2000/svg" xmlns:xlink="http://www.w3.org/1999/xlink" width="54.481" height="60.481" viewBox="0 0 54.481 60.481">
  <defs>
    <clipPath id="clip-path">
      <rect x="38" y="34" width="54.481" height="60.481" fill="none"/>
    </clipPath>
    <linearGradient id="linear-gradient" x1="0.951" y1="-0.065" x2="0.275" y2="1.418" gradientUnits="objectBoundingBox">
      <stop offset="0" stop-color="#05185e"/>
      <stop offset="1" stop-color="#4b86ac"/>
    </linearGradient>
    <filter id="Rectangle_511" x="-23.03" y="-15.683" width="99.632" height="100.688" filterUnits="userSpaceOnUse">
      <feOffset dy="7" input="SourceAlpha"/>
      <feGaussianBlur stdDeviation="7.5" result="blur"/>
      <feFlood flood-opacity="0.2"/>
      <feComposite operator="in" in2="blur"/>
      <feComposite in="SourceGraphic"/>
    </filter>
    <filter id="Path_2" x="-15.5" y="-11.5" width="88.481" height="88.481" filterUnits="userSpaceOnUse">
      <feOffset dy="7" input="SourceAlpha"/>
      <feGaussianBlur stdDeviation="7.5" result="blur-2"/>
      <feFlood flood-opacity="0.2"/>
      <feComposite operator="in" in2="blur-2"/>
      <feComposite in="SourceGraphic"/>
    </filter>
  </defs>
  <g id="Scroll_Group_4" data-name="Scroll Group 4" transform="translate(-38 -34)" clip-path="url(#clip-path)" style="isolation: isolate">
    <g id="blueSendMessage-icon-2" data-name="blueSendMessage-icon" transform="translate(37.47 33.817)">
      <g id="Component_499_2" data-name="Component 499 – 2">
        <g transform="matrix(1, 0, 0, 1, 0.53, 0.18)" filter="url(#Rectangle_511)">
          <rect id="Rectangle_511-2" data-name="Rectangle 511" width="54.632" height="55.688" rx="27.316" transform="translate(-0.53 -0.18)" fill="url(#linear-gradient)"/>
        </g>
        <g id="_Icons_Plane" data-name="_Icons / Plane" transform="translate(7.53 26.167) rotate(-45)">
          <g transform="matrix(0.71, 0.71, -0.71, 0.71, 13.42, -23.32)" filter="url(#Path_2)">
            <path id="Path_2-2" data-name="Path 2" d="M0,28.154V20.381a4.05,4.05,0,0,1,.37-1.545,4.366,4.366,0,0,1,1.364-.9l16.4-2.74H31.09L30.3,16.393,3.877,30.4ZM18.136,15.2l-16.4-2.739A5.623,5.623,0,0,1,.37,11.473,3.976,3.976,0,0,1,0,10.018V2.245L3.877,0,30.3,14.006,31.09,15.2Z" transform="translate(7 25.98) rotate(-45)" fill="#f5f5f5"/>
          </g>
        </g>
      </g>
    </g>
  </g>
</svg>
