<svg xmlns="http://www.w3.org/2000/svg" width="91.139" height="26.454" viewBox="0 0 91.139 26.454">
  <g id="Group_328" data-name="Group 328" transform="translate(0.497 0.5)">
    <path id="Path_74" data-name="Path 74" d="M957.554,700.339c-.054.264-.436,1.359.409,1.359h89.043c.6,0,.545-.6.545-.953,0-.651-1.117-.406-2.343-.406Z" transform="translate(-957.41 -686.2)" fill="#04165d" stroke="rgba(0,0,0,0)" stroke-miterlimit="10" stroke-width="1" fill-rule="evenodd"/>
    <path id="Path_75" data-name="Path 75" d="M1269.121,648.513H1267.9c0-2.048-.381-2.133,1.771-1.633,0,.019.463,1.633-.545,1.633Zm2.18-1.907c1.471.774.735,1.718,0,1.907.272-1.067.136-.859,0-1.907Zm-9.427-3.662c0,.415.082.3.082.538-.027,8.391-1.989,7.069,12.915,7.069h2.589c2.425,0,2.071.831,2.071-3.4,0-2.256-4.005-2.322-5.2-2.039-.436,2.039.6.878,2.234,1.3.708.17.845.387.927,1.142.136,1.538.654,1.227-3.706,1.227,0-1.614.082-3.8-2.888-3.8-5.967,0-4.469-.5-4.632,3-.027.887-.408.689-1.008.585-.681-.113-.926-.142-.926-.868a34.05,34.05,0,0,1,.163-5.578,10.96,10.96,0,0,0-2.479-.132A9.22,9.22,0,0,0,1261.874,642.944Z" transform="translate(-1189.661 -641.717)" fill="#04165d" stroke="rgba(0,0,0,0)" stroke-miterlimit="10" stroke-width="1" fill-rule="evenodd"/>
    <path id="Path_76" data-name="Path 76" d="M1143.233,645.979l.136,1.218a23.864,23.864,0,0,1,4.005.1c1.471.33,1.471.547,1.662,1.472a4.46,4.46,0,0,1-.054,2.916,12.849,12.849,0,0,1-4.25,0v-2.718c-2.262-.529-2.043.566-2.043,2.445h-1.635c0-2.615.218-2.586-1.09-2.586-1.362,0-1.09,1.406-1.09,2.586h-1.935V648.83a2.979,2.979,0,0,0-1.39.1c-.981.359-.654,2.322-.654,3.974,0,.576.9.481,1.717.51,2.7.113,11.2-.123,12.288-.019,3.324.3,2.806-2.492,2.806-4.568,0-1.624-1.2-1.331-1.5-2.171,1.281,0,1.635.245,1.635-.68a.52.52,0,0,0-.545-.547h-7.52A.536.536,0,0,0,1143.233,645.979Z" transform="translate(-1092.764 -644.347)" fill="#04165d" stroke="rgba(0,0,0,0)" stroke-miterlimit="10" stroke-width="1" fill-rule="evenodd"/>
    <path id="Path_77" data-name="Path 77" d="M972.883,656.538a11.429,11.429,0,0,0-.163,2.964h-1.771c0-.783.218-2.586-.409-2.586-1.5,0-1.744.519-1.716,1.775.027.047.218.632-.109.821l-.082.028L967,659.5c0-2.926.273-2.586-1.09-2.586-.708,0-.954.415-.981,1.086-.109,1.925.382,3.086-.518,3.709-1.063.727-3.188.51-4.659.51l-.136-5.031c-.572-.113-.463.047-1.226-.029-.436-.038-.981-.227-.981.434v5.71c0,.311.109.406.409.406,2.507,0,5.913.321,7.684-.519,1.008-.463.818-.8,1.226-1.652l6.7.009c1.771.029,1.226-.4,1.226-2.322a8.715,8.715,0,0,1,.136-2.577C973.946,656.255,973.891,656.387,972.883,656.538Z" transform="translate(-957.399 -652.706)" fill="#04165d" stroke="rgba(0,0,0,0)" stroke-miterlimit="10" stroke-width="1" fill-rule="evenodd"/>
    <path id="Path_78" data-name="Path 78" d="M1211.252,649.328v4.351c0,.415.109.812.545.812h6.267a5.133,5.133,0,0,0,3.188-1.2c.027-.019.381-.538.408-.547.573-1.095.491-4.71.245-5.729h-2.316c-.708,2.973,1.389,5.984-2.752,5.984a14.611,14.611,0,0,1-3.27-.132v-3.945c0-2.388.3-1.907-2.18-1.907-.191.764,0,.293-.027,1.067A10.9,10.9,0,0,0,1211.252,649.328Z" transform="translate(-1151.055 -645.525)" fill="#04165d" stroke="rgba(0,0,0,0)" stroke-miterlimit="10" stroke-width="1" fill-rule="evenodd"/>
    <path id="Path_79" data-name="Path 79" d="M1091.839,716.506c0,6.135-.436,5.3,6.567,5.3a2.049,2.049,0,0,0,.681-.142,18.438,18.438,0,0,0-.136-3.53l-2.343-.019c-.845.085-.381-.113-.545.293-.055.132-.381.085.218.321.463.189.463-.066.763.217.245.245.109,1.17.109,1.633-.463.038-.327.1-.818.123-.6.019-2.18.066-2.18-.661v-4.077c0-.349.463-.755.763-.868,1.417-.529,3.76.434,3.76-.765,0-.887-1.09-.613-1.417-.642a4.233,4.233,0,0,0-1.144,0C1094.863,713.863,1091.839,713.57,1091.839,716.506Z" transform="translate(-1059.952 -696.392)" fill="#04165d" stroke="rgba(0,0,0,0)" stroke-miterlimit="10" stroke-width="1" fill-rule="evenodd"/>
    <path id="Path_80" data-name="Path 80" d="M1239.372,721.458c3.161.736,2.207-.661,2.207-3.124,0-.623.027-1.472.055-1.84l.082-1.69a10.2,10.2,0,0,1,2.016.019c.708.311.354,1.416.354,1.491,0,.142.273.963-.272,1.265-.055.038-.9.189-1.008.217-.218.887-.382,1.472,1.771,1.095,1.853-.321,1.5-1.6,1.5-3.407,0-2.68-2.452-2.039-6.131-2.039-.708,0-.572.8-.572,1.491Z" transform="translate(-1172.5 -696.182)" fill="#04165d" stroke="rgba(0,0,0,0)" stroke-miterlimit="10" stroke-width="1" fill-rule="evenodd"/>
    <path id="Path_81" data-name="Path 81" d="M1056.118,648.755c0,1.689,1.935,1.765,3.133,1.765,4.986,0,4.251.387,4.224-1.633,0-1,.218-.925.027-1.765-.926-.217-.572,0-1.526,0-1.035,0-.954-.557-.954,1.906-2.343,0-2.479.217-2.452-1.218v-4.087c0-2.067.463-1.765-2.452-1.765Z" transform="translate(-1032.705 -641.685)" fill="#04165d" stroke="rgba(0,0,0,0)" stroke-miterlimit="10" stroke-width="1" fill-rule="evenodd"/>
    <path id="Path_82" data-name="Path 82" d="M1088.929,664.022c0,2.048-.273,1.765,1.362,1.765a4.6,4.6,0,0,0,2.207-.519,3,3,0,0,0,1.09-.963c.382-.51-.191-.179.382-.415l.191-.085a1.833,1.833,0,0,1,.354-.057h4.932c-.082-.84-1.035-1.076-1.39-1.737-.708-1.34,1.008-2.746-1.2-2.746-1.362,0-1.09,1.67-1.09,2.586h-1.935c0-3.171.382-2.718-1.5-2.718-.627,0-.409.963-.409,1.633,0,.727.245,2.152-.354,2.633C1090.836,663.985,1088.929,663.126,1088.929,664.022Z" transform="translate(-1057.723 -654.782)" fill="#04165d" stroke="rgba(0,0,0,0)" stroke-miterlimit="10" stroke-width="1" fill-rule="evenodd"/>
    <path id="Path_83" data-name="Path 83" d="M1125.275,724.849c0-4.1-.518-3.539,2.316-3.539.708,0,.572.812.545,1.491-.027,2.4.627,2.624-1.362,2.671-.518.009-1.5,0-1.5-.623Zm-1.771-2.992c0,3.7-.518,4.757,3.542,4.757,2.316,0,3.351-.868,2.942-3.483-.191-1.265.654-3.181-3.624-3.181C1125.112,719.951,1123.5,720.7,1123.5,721.858Z" transform="translate(-1084.097 -701.197)" fill="#04165d" stroke="rgba(0,0,0,0)" stroke-miterlimit="10" stroke-width="1" fill-rule="evenodd"/>
    <path id="Path_84" data-name="Path 84" d="M1064.022,726.473a3.315,3.315,0,0,0,1.771,0v-5.295c1.117,0,2.1-.189,2.616.387.409.444.109.406.109.83a20.524,20.524,0,0,0,.136,2.048c.109,1.255-.926,2.624,1.662,2.029,0-6.465.872-6.522-5.749-6.522-.817,0-.545,1.652-.545,2.992Z" transform="translate(-1038.701 -701.197)" fill="#04165d" stroke="rgba(0,0,0,0)" stroke-miterlimit="10" stroke-width="1" fill-rule="evenodd"/>
    <path id="Path_85" data-name="Path 85" d="M1269.61,724.35c0-1.085.927-1.218,2.043-1.218a6.9,6.9,0,0,1-.136,2.171c-.708.161-1.907.057-1.907-.953Zm-1.253-3.936c0,1.1.926.6,2.207.67,1.117.056,1.417,1.066.681,1.227-.627.123-3.569-.151-3.569,1.907,0,2.728,1.771,2.312,4.387,2.312,1.853,0,1.362-1.68,1.362-4.625,0-1.312-1.8-2.039-3-2.039C1269.365,719.867,1268.356,719.659,1268.356,720.414Z" transform="translate(-1194.1 -701.112)" fill="#04165d" stroke="rgba(0,0,0,0)" stroke-miterlimit="10" stroke-width="1" fill-rule="evenodd"/>
    <path id="Path_86" data-name="Path 86" d="M959.315,719.975v-.821c-2.18,0-1.935-.217-1.935,1.085,0,1.944,2.643,1.5,4.659,1.5a2.072,2.072,0,0,0,1.417-.368,1.964,1.964,0,0,0,.627-1.265v-6.116c0-.576-.518-.406-1.771-.406-.654,0-.408,1.048-.408,2.171v2.718c0,1.057.191,1.822-.708,2.039C960.677,720.646,959.315,720.655,959.315,719.975Z" transform="translate(-957.372 -696.323)" fill="#04165d" stroke="rgba(0,0,0,0)" stroke-miterlimit="10" stroke-width="1" fill-rule="evenodd"/>
    <path id="Path_87" data-name="Path 87" d="M1197.438,724.541c0-.746.191-1,.708-1.218a2.971,2.971,0,0,1,.79-.189c.681-.066.572-.217.572,1.812,0,.991-2.071.538-2.071-.406Zm-1.226-4.219v.821c1.308,0,2.261-.189,2.888.255.218.151.409.227.409.557,0,.576-.545.387-1.09.434a4.378,4.378,0,0,0-1.907.4,2.034,2.034,0,0,0,1.2,3.794c4.141,0,3.406.283,3.433-3.8,0-1.312.136-1.6-.681-2.19-1.172-.821-2.37-.67-3.842-.67C1196.321,719.916,1196.212,720.01,1196.212,720.321Z" transform="translate(-1139.04 -701.161)" fill="#04165d" stroke="rgba(0,0,0,0)" stroke-miterlimit="10" stroke-width="1" fill-rule="evenodd"/>
    <path id="Path_88" data-name="Path 88" d="M990.258,725.93c-2.18,0-1.962-2.312.136-2.312.6,0,.408.576.354,1.17-.054.519.136,1.142-.49,1.142Zm-2.752-4.351c2.561,0,3.161-.349,3.161,1.218-1.826,0-3.842.038-3.842,2.18,0,2.388,2.18,2.039,4.251,2.039,1.852,0,1.362-1.406,1.362-4.757a1.654,1.654,0,0,0-.954-1.369c-.954-.538-2.725-.4-3.978-.4Z" transform="translate(-979.842 -701.598)" fill="#04165d" stroke="rgba(0,0,0,0)" stroke-miterlimit="10" stroke-width="1" fill-rule="evenodd"/>
    <path id="Path_89" data-name="Path 89" d="M1041.248,725.017c0-1.557.79-1.491,2.071-1.491,0,1.2.218,2.312-.572,2.312-.572,0-1.5-.264-1.5-.821Zm-1.226-4.21c0,.953.463.67,1.8.67,1.444,0,1.5.529,1.5,1.227a8.429,8.429,0,0,0-2.834.331,1.9,1.9,0,0,0-1.144,1.576c0,2.671,1.689,2.312,4.25,2.312,1.88,0,1.363-1.472,1.363-5.031,0-.67-1.39-1.491-2.343-1.491C1040.949,720.4,1040.022,720.157,1040.022,720.808Z" transform="translate(-1019.906 -701.506)" fill="#04165d" stroke="rgba(0,0,0,0)" stroke-miterlimit="10" stroke-width="1" fill-rule="evenodd"/>
    <path id="Path_90" data-name="Path 90" d="M1151.978,721.678c0,1.907,2.261,1.992,3.052,2.4.6.3.627.453.627,1.274-2.861.67-3.815-.84-3.815,1.085.981.085,4.114.349,5.041-.151.79-.425,1.417-2.416-.872-3.2-1.58-.547-1.989-.434-1.989-1.539,0-.576.627-.425,1.226-.415.545.009,1.09.009,1.635.009.327-1.444-.164-1.227-1.635-1.227C1153.722,719.914,1151.978,720.178,1151.978,721.678Z" transform="translate(-1105.732 -701.159)" fill="#04165d" stroke="rgba(0,0,0,0)" stroke-miterlimit="10" stroke-width="1" fill-rule="evenodd"/>
    <path id="Path_91" data-name="Path 91" d="M1311.844,721.858c0,1.557,1.717,1.718,2.861,2.19l.518.283c.272.245.3.236.3.651,0,.849-2.18.547-3.678.547a3.5,3.5,0,0,1-.272.812c.927.444,2.616.274,3.951.274,1.962,0,3.079-2.482.272-3.521-.926-.33-2.044-.472-2.044-1.378,0-.821,1.444-.538,3-.538,0-1.2.082-1.227-1.5-1.227C1313.534,719.951,1311.844,720.13,1311.844,721.858Z" transform="translate(-1227.589 -701.197)" fill="#04165d" stroke="rgba(0,0,0,0)" stroke-miterlimit="10" stroke-width="1" fill-rule="evenodd"/>
    <path id="Path_92" data-name="Path 92" d="M1032.521,659.858a3.937,3.937,0,0,1-.054.443c-.027.642.054-.141.054.51,0,.481-.082.3-.082.566,0,.519.191-.321-.082,1.878-.6.142-.354.264-1.2.283-.518.009-1.09-.01-1.635-.01-.6,2.492.3,2.171,1.226,2.171,4.741,0,3.678-3.709,3.678-6.522C1031.922,658.593,1032.521,659.584,1032.521,659.858Z" transform="translate(-1012.268 -654.695)" fill="#04165d" stroke="rgba(0,0,0,0)" stroke-miterlimit="10" stroke-width="1" fill-rule="evenodd"/>
    <path id="Path_93" data-name="Path 93" d="M1177.123,717.614v5.031a1.731,1.731,0,0,0,.817,1.359c.272.16,4.087,1.217,3.161-.68-2.7,0-2.18.312-2.18-3.945,0-.576.517-.406,1.771-.406v-1.085a6.092,6.092,0,0,0-1.771-.142c-.082-.793-.327-.68-1.226-.68A.542.542,0,0,0,1177.123,717.614Z" transform="translate(-1125.019 -698.991)" fill="#04165d" stroke="rgba(0,0,0,0)" stroke-miterlimit="10" stroke-width="1" fill-rule="evenodd"/>
    <path id="Path_94" data-name="Path 94" d="M1011.4,721.63c1.226.283.872.094,1.907,0,0-8.721.736-8.013-1.771-8.013C1011.151,715.259,1011.4,719.563,1011.4,721.63Z" transform="translate(-998.528 -696.354)" fill="#04165d" stroke="rgba(0,0,0,0)" stroke-miterlimit="10" stroke-width="1" fill-rule="evenodd"/>
    <path id="Path_95" data-name="Path 95" d="M1020.265,720.4c0,1.34.463.123,2.479,1.085v2.851c0,.991-.3,2.18.681,2.18,1.771,0,1.144-.727,1.09-2.048-.027-1.378.736-3.049-.872-4.153C1023.262,720.065,1020.265,719.31,1020.265,720.4Z" transform="translate(-1005.353 -701.103)" fill="#04165d" stroke="rgba(0,0,0,0)" stroke-miterlimit="10" stroke-width="1" fill-rule="evenodd"/>
    <path id="Path_96" data-name="Path 96" d="M1294.106,722.356c0,4.389-.382,4.219,1.362,4.219.844,0,.545-1.52.545-2.313v-2.85c.654-.151.381-.264,1.253-.274,1.008-.009,1.09.189,1.09-.821,0-.529-.354-.406-1.226-.406C1295.523,719.911,1294.106,720.8,1294.106,722.356Z" transform="translate(-1214.237 -701.157)" fill="#04165d" stroke="rgba(0,0,0,0)" stroke-miterlimit="10" stroke-width="1" fill-rule="evenodd"/>
    <path id="Path_97" data-name="Path 97" d="M1220.409,722.4l.082,2.322c.027,1.019-.736,2.18,1.689,1.614v-4.889a2.3,2.3,0,0,1,1.09-.406c1.063-.066,1.226.311,1.226-.821,0-.972-2.807-.113-3.3.245A2.137,2.137,0,0,0,1220.409,722.4Z" transform="translate(-1158.033 -701.06)" fill="#04165d" stroke="rgba(0,0,0,0)" stroke-miterlimit="10" stroke-width="1" fill-rule="evenodd"/>
    <path id="Path_98" data-name="Path 98" d="M1064.737,680.725c0,1.878,1.035.585,1.389,1.255.164.311-.572,1.463.79,1.463,1.226,0,.735-.953.681-1.633a2.956,2.956,0,0,0,1.09-.132v-1.359C1067.789,680.243,1064.737,679.715,1064.737,680.725Z" transform="translate(-1039.28 -670.805)" fill="#04165d" stroke="rgba(0,0,0,0)" stroke-miterlimit="10" stroke-width="1" fill-rule="evenodd"/>
    <path id="Path_99" data-name="Path 99" d="M1170.571,641.534h7.792c.381,0,.272-.057.409-.274-.082-.3-.027-.406-.409-.406h-7.792C1170,640.854,1170,641.534,1170.571,641.534Z" transform="translate(-1119.693 -640.854)" fill="#04165d" stroke="rgba(0,0,0,0)" stroke-miterlimit="10" stroke-width="1" fill-rule="evenodd"/>
    <path id="Path_100" data-name="Path 100" d="M1228.489,652.866c0,.566,1.39.415,1.907.415.572,0,.409-.472.409-1.633,0-.727-.9-.548-1.771-.548-.463,0-.463.34-.463.632Z" transform="translate(-1164.205 -648.657)" fill="#04165d" stroke="rgba(0,0,0,0)" stroke-miterlimit="10" stroke-width="1" fill-rule="evenodd"/>
    <path id="Path_101" data-name="Path 101" d="M1317.913,682.578a3.879,3.879,0,0,0-.136-1.633,12.689,12.689,0,0,0-1.608.028c-.545.17-.381.566-.327,1.2.082.9.082.887.736.859S1317.913,683.145,1317.913,682.578Z" transform="translate(-1230.797 -671.431)" fill="#04165d" stroke="rgba(0,0,0,0)" stroke-miterlimit="10" stroke-width="1" fill-rule="evenodd"/>
    <path id="Path_102" data-name="Path 102" d="M1123.79,648.313c1.362,0,1.362.085,1.362-1.218,0-.689-.763-.547-1.362-.547-.545,0-.409.443-.436.944C1123.326,647.926,1123.19,648.313,1123.79,648.313Z" transform="translate(-1083.973 -645.189)" fill="#04165d" stroke="rgba(0,0,0,0)" stroke-miterlimit="10" stroke-width="1" fill-rule="evenodd"/>
    <path id="Path_103" data-name="Path 103" d="M1113.69,647.219l.136,1.085a6.013,6.013,0,0,0,1.662-.132c0-1.916.273-1.633-1.662-1.633A2.41,2.41,0,0,0,1113.69,647.219Z" transform="translate(-1076.626 -645.18)" fill="#04165d" stroke="rgba(0,0,0,0)" stroke-miterlimit="10" stroke-width="1" fill-rule="evenodd"/>
  </g>
</svg>
