<svg xmlns="http://www.w3.org/2000/svg" width="163.765" height="32.202" viewBox="0 0 163.765 32.202">
  <path id="copyRight" d="M3.038-1.722a1.68,1.68,0,0,0,1.008-.266A.8.8,0,0,0,4.41-2.66V-4.41H3.15a1.173,1.173,0,0,0-.994.42,1.769,1.769,0,0,0-.322,1.106,1.159,1.159,0,0,0,.294.9A1.35,1.35,0,0,0,3.038-1.722Zm2.478-.686a1.5,1.5,0,0,0,.217.854.837.837,0,0,0,.749.322h.28a.23.23,0,0,1,.231.147,1.226,1.226,0,0,1,.063.455,1.338,1.338,0,0,1-.063.476A.23.23,0,0,1,6.762,0h-.28A2.249,2.249,0,0,1,5.355-.259,1.534,1.534,0,0,1,4.69-1.19a1.311,1.311,0,0,1-.4.336,2.28,2.28,0,0,1-.483.2,3.173,3.173,0,0,1-.518.1,4.706,4.706,0,0,1-.49.028,2.024,2.024,0,0,1-1.54-.56A2.379,2.379,0,0,1,.728-2.786,3.56,3.56,0,0,1,.875-3.8a2.783,2.783,0,0,1,.441-.889,2.231,2.231,0,0,1,.735-.63A2.134,2.134,0,0,1,3.08-5.558H4.41V-6.51H5.516Zm2.17,1.176A1.119,1.119,0,0,0,8.477-1.5a.98.98,0,0,0,.287-.756V-4.046H9.912V-2.2A2.208,2.208,0,0,1,9.345-.567,2.129,2.129,0,0,1,7.77,0H6.412a.241.241,0,0,1-.245-.147A1.176,1.176,0,0,1,6.1-.588a1.392,1.392,0,0,1,.063-.49.24.24,0,0,1,.245-.154ZM8.33,2.8H6.958V1.6H8.33ZM21.14,0a3.823,3.823,0,0,1-.28,1.3,3.42,3.42,0,0,1-.693,1.078,3.28,3.28,0,0,1-1.057.735,3.35,3.35,0,0,1-1.372.273H16.03a3.106,3.106,0,0,1-2.436-.966,3.815,3.815,0,0,1-.868-2.646V-2.7H13.86V-.266A2.71,2.71,0,0,0,14.406,1.5,2.18,2.18,0,0,0,16.2,2.17h1.456A2.682,2.682,0,0,0,18.662,2a2.152,2.152,0,0,0,.728-.469A2.074,2.074,0,0,0,19.845.84,2.627,2.627,0,0,0,20.034,0h-1.19a3.85,3.85,0,0,1-1.183-.154A1.668,1.668,0,0,1,16.926-.6a1.636,1.636,0,0,1-.371-.721,4.024,4.024,0,0,1-.105-.959A3.321,3.321,0,0,1,16.6-3.3a2.51,2.51,0,0,1,.455-.847,2.223,2.223,0,0,1,.742-.581,2.3,2.3,0,0,1,1.029-.217,2.6,2.6,0,0,1,.889.154,1.912,1.912,0,0,1,.742.483,2.375,2.375,0,0,1,.5.861,3.866,3.866,0,0,1,.189,1.288v.924h1.26q.308,0,.308.6,0,.63-.308.63ZM17.556-2.352a1.113,1.113,0,0,0,.287.861,1.722,1.722,0,0,0,1.113.259h1.106V-2.1a1.916,1.916,0,0,0-.336-1.267,1.213,1.213,0,0,0-.966-.385,1.1,1.1,0,0,0-.889.371A1.541,1.541,0,0,0,17.556-2.352Zm2.856-4.074H19.138V-7.6h1.274Zm-1.876,0H17.262V-7.6h1.274Zm5.838,5.194a.241.241,0,0,1,.245.147,1.226,1.226,0,0,1,.063.455,1.338,1.338,0,0,1-.063.476A.24.24,0,0,1,24.374,0h-2.31a.241.241,0,0,1-.245-.147,1.176,1.176,0,0,1-.063-.441,1.392,1.392,0,0,1,.063-.49.24.24,0,0,1,.245-.154Zm1.96,0a.241.241,0,0,1,.245.147,1.226,1.226,0,0,1,.063.455,1.338,1.338,0,0,1-.063.476A.24.24,0,0,1,26.334,0h-2.31a.241.241,0,0,1-.245-.147,1.176,1.176,0,0,1-.063-.441,1.392,1.392,0,0,1,.063-.49.24.24,0,0,1,.245-.154Zm0,0q1.078,0,1.078-1.022V-8.68H28.56v6.426a1.125,1.125,0,0,0,.091.476.832.832,0,0,0,.245.315,1.021,1.021,0,0,0,.357.175,1.546,1.546,0,0,0,.413.056h.21a.241.241,0,0,1,.245.147,1.226,1.226,0,0,1,.063.455,1.338,1.338,0,0,1-.063.476A.24.24,0,0,1,29.876,0h-.252a2.453,2.453,0,0,1-.945-.182A1.523,1.523,0,0,1,27.944-.9a1.685,1.685,0,0,1-.742.714A2.162,2.162,0,0,1,26.334,0h-.35a.241.241,0,0,1-.245-.147,1.176,1.176,0,0,1-.063-.441,1.392,1.392,0,0,1,.063-.49.24.24,0,0,1,.245-.154Zm3.906,0q.532,0,1.141-.056a4.038,4.038,0,0,0,1.183-.294L30.632-4.1l.6-1.148H34.86a1.952,1.952,0,0,1,1.071.273,1.106,1.106,0,0,1,.511.791,1.8,1.8,0,0,1,.042.378,1.646,1.646,0,0,1-.084.392,2.239,2.239,0,0,1-.245.483,4.469,4.469,0,0,1-.5.623q-.329.35-.847.812a2.086,2.086,0,0,0,.791.231q.413.035,1,.035h.994q.308,0,.308.6,0,.63-.308.63h-1.2q-.448,0-.826-.021a4.808,4.808,0,0,1-.714-.091,2.521,2.521,0,0,1-.637-.224,2.568,2.568,0,0,1-.595-.434,4.73,4.73,0,0,1-.763.392,4.733,4.733,0,0,1-.784.238,5.877,5.877,0,0,1-.833.112Q30.8,0,30.324,0h-.8a.241.241,0,0,1-.245-.147,1.176,1.176,0,0,1-.063-.441,1.392,1.392,0,0,1,.063-.49.24.24,0,0,1,.245-.154ZM35.266-3.6q0-.49-.742-.49H31.976l1.75,2.24q.448-.364.742-.637t.476-.476a1.5,1.5,0,0,0,.252-.357A.685.685,0,0,0,35.266-3.6Zm3,2.366q1.092,0,1.092-1.022V-4.046H40.5v1.792a1.125,1.125,0,0,0,.091.476.832.832,0,0,0,.245.315,1.021,1.021,0,0,0,.357.175,1.546,1.546,0,0,0,.413.056H42q.322,0,.322.6Q42.322,0,42,0h-.434a2.453,2.453,0,0,1-.945-.182A1.523,1.523,0,0,1,39.886-.9a1.7,1.7,0,0,1-.735.714A2.18,2.18,0,0,1,38.262,0H37.24A.241.241,0,0,1,37-.147a1.176,1.176,0,0,1-.063-.441A1.392,1.392,0,0,1,37-1.078a.24.24,0,0,1,.245-.154Zm3.066-4.536H40.054V-6.944h1.274Zm-1.876,0H38.178V-6.944h1.274Zm2.38,4.536q1.064,0,1.064-.9v-.434a2.713,2.713,0,0,1,.623-1.883,2.206,2.206,0,0,1,1.729-.693,2.506,2.506,0,0,1,1.008.189,2.027,2.027,0,0,1,.728.525,2.208,2.208,0,0,1,.441.805,3.427,3.427,0,0,1,.147,1.029,2.7,2.7,0,0,1-.63,1.911A2.252,2.252,0,0,1,45.206,0a2.712,2.712,0,0,1-1.071-.217,1.59,1.59,0,0,1-.791-.735,1.592,1.592,0,0,1-.308.483,1.538,1.538,0,0,1-.378.294,1.311,1.311,0,0,1-.413.14A2.6,2.6,0,0,1,41.832,0H41.65a.241.241,0,0,1-.245-.147,1.176,1.176,0,0,1-.063-.441,1.392,1.392,0,0,1,.063-.49.24.24,0,0,1,.245-.154Zm4.62-1.274a1.726,1.726,0,0,0-.273-1.008,1.087,1.087,0,0,0-.959-.392,1.118,1.118,0,0,0-.931.378,1.669,1.669,0,0,0-.3,1.064,1.179,1.179,0,0,0,.343.924,1.26,1.26,0,0,0,.875.308,1.226,1.226,0,0,0,.938-.329A1.332,1.332,0,0,0,46.452-2.506Zm11,1.274q1.078,0,1.078-1.022V-4.046h1.148v1.792a1.056,1.056,0,0,0,.1.476.9.9,0,0,0,.252.315,1.021,1.021,0,0,0,.357.175,1.546,1.546,0,0,0,.413.056h.252a.241.241,0,0,1,.245.147,1.226,1.226,0,0,1,.063.455,1.338,1.338,0,0,1-.063.476A.24.24,0,0,1,61.054,0h-.28a2.489,2.489,0,0,1-.959-.182A1.523,1.523,0,0,1,59.08-.9a1.685,1.685,0,0,1-.742.714A2.2,2.2,0,0,1,57.456,0H52.6a2.522,2.522,0,0,1-.987-.175,1.829,1.829,0,0,1-.672-.469,1.826,1.826,0,0,1-.378-.686,2.828,2.828,0,0,1-.119-.826V-4.088H51.59v1.652a1.35,1.35,0,0,0,.266.875,1.248,1.248,0,0,0,1.008.329Zm-.826-4H55.356V-6.412H56.63Zm-1.876,0H53.48V-6.412h1.274Zm7.224,4a1.119,1.119,0,0,0,.791-.266.98.98,0,0,0,.287-.756V-4.046H64.2V-2.2a2.208,2.208,0,0,1-.567,1.631A2.129,2.129,0,0,1,62.062,0H60.7a.241.241,0,0,1-.245-.147A1.176,1.176,0,0,1,60.4-.588a1.392,1.392,0,0,1,.063-.49.24.24,0,0,1,.245-.154Zm1.932,4H62.678V1.6H63.91Zm-1.9,0H60.76V1.6h1.246ZM67.466,0a2.52,2.52,0,0,1-.728-.105,1.463,1.463,0,0,1-.609-.357,1.777,1.777,0,0,1-.413-.665,2.97,2.97,0,0,1-.154-1.029V-8.68H66.71v6.272a1.435,1.435,0,0,0,.231.854.843.843,0,0,0,.735.322h.28q.308,0,.308.6,0,.63-.308.63Zm.7-1.232q1.106,0,1.106-1.022V-4.046H70.42v1.792a1.056,1.056,0,0,0,.1.476.9.9,0,0,0,.252.315,1.021,1.021,0,0,0,.357.175,1.546,1.546,0,0,0,.413.056q1.2,0,1.2-1.022V-4.046h1.148v1.792a.935.935,0,0,0,.3.8,1.151,1.151,0,0,0,.707.224,1.047,1.047,0,0,0,.763-.266,1.007,1.007,0,0,0,.273-.756V-4.046h1.148v1.792a1.125,1.125,0,0,0,.091.476.832.832,0,0,0,.245.315,1.028,1.028,0,0,0,.35.175,1.421,1.421,0,0,0,.392.056h.294q.308,0,.308.6,0,.63-.308.63h-.294A2.489,2.489,0,0,1,77.2-.182,1.523,1.523,0,0,1,76.468-.9a1.674,1.674,0,0,1-.749.714A2.087,2.087,0,0,1,74.9,0a2.264,2.264,0,0,1-.91-.182A1.548,1.548,0,0,1,73.276-.9a1.631,1.631,0,0,1-.784.714A2.575,2.575,0,0,1,71.54,0a2.633,2.633,0,0,1-.987-.182A1.51,1.51,0,0,1,69.8-.9a1.664,1.664,0,0,1-.756.714A2.365,2.365,0,0,1,68.124,0h-.518a.241.241,0,0,1-.245-.147A1.176,1.176,0,0,1,67.3-.588a1.392,1.392,0,0,1,.063-.49.24.24,0,0,1,.245-.154Zm11.214,0a1.119,1.119,0,0,0,.791-.266.98.98,0,0,0,.287-.756V-4.046h1.148V-2.2a2.208,2.208,0,0,1-.567,1.631A2.129,2.129,0,0,1,79.464,0H78.106a.241.241,0,0,1-.245-.147A1.176,1.176,0,0,1,77.8-.588a1.392,1.392,0,0,1,.063-.49.24.24,0,0,1,.245-.154ZM80.024,2.8H78.652V1.6h1.372Zm4.032-.63A2.682,2.682,0,0,0,85.064,2a2.076,2.076,0,0,0,.721-.469A2.038,2.038,0,0,0,86.226.84,2.752,2.752,0,0,0,86.408,0h-1.19a3.781,3.781,0,0,1-1.176-.154A1.669,1.669,0,0,1,83.314-.6a1.636,1.636,0,0,1-.371-.721,4.024,4.024,0,0,1-.105-.959A3.321,3.321,0,0,1,82.992-3.3a2.58,2.58,0,0,1,.448-.847,2.151,2.151,0,0,1,.735-.581A2.3,2.3,0,0,1,85.2-4.942a2.6,2.6,0,0,1,.889.154,1.972,1.972,0,0,1,.749.483,2.32,2.32,0,0,1,.511.861,3.866,3.866,0,0,1,.189,1.288V-.224a4.112,4.112,0,0,1-.231,1.372A3.434,3.434,0,0,1,86.639,2.3a3.25,3.25,0,0,1-1.071.791,3.338,3.338,0,0,1-1.428.294H82.684L82.6,2.17ZM83.93-2.352a1.113,1.113,0,0,0,.287.861,1.722,1.722,0,0,0,1.113.259h1.106V-2.1a1.888,1.888,0,0,0-.343-1.267,1.218,1.218,0,0,0-.959-.385,1.1,1.1,0,0,0-.889.371A1.541,1.541,0,0,0,83.93-2.352ZM99.064,0a1.792,1.792,0,0,1-.616-.112,1.088,1.088,0,0,1-.518-.406v.252a4.186,4.186,0,0,1-.238,1.421,3.515,3.515,0,0,1-.679,1.162,3.151,3.151,0,0,1-1.078.784,3.456,3.456,0,0,1-1.435.287h-.854a3.106,3.106,0,0,1-2.436-.966,3.815,3.815,0,0,1-.868-2.646V-2.7h1.134V-.266A2.71,2.71,0,0,0,92.022,1.5a2.18,2.18,0,0,0,1.792.672h.616a2.731,2.731,0,0,0,1.085-.2,2.059,2.059,0,0,0,.749-.532A2.148,2.148,0,0,0,96.7.658a3.126,3.126,0,0,0,.14-.938V-4.046h1.134v1.834a.891.891,0,0,0,.308.721,1.176,1.176,0,0,0,.784.259h.154q.322,0,.322.6,0,.63-.322.63ZM94.64-4.312H93.268v-1.2H94.64Zm5.5,3.08a1.119,1.119,0,0,0,.791-.266.98.98,0,0,0,.287-.756V-4.046h1.148V-2.2A2.208,2.208,0,0,1,101.8-.567,2.129,2.129,0,0,1,100.226,0H98.868a.241.241,0,0,1-.245-.147,1.176,1.176,0,0,1-.063-.441,1.392,1.392,0,0,1,.063-.49.24.24,0,0,1,.245-.154Zm1.932,4h-1.232V1.6h1.232Zm-1.9,0H98.924V1.6h1.246ZM103.726-8.68h1.148V0h-1.148Zm9.058,10.85A2.682,2.682,0,0,0,113.792,2a2.152,2.152,0,0,0,.728-.469,2.074,2.074,0,0,0,.455-.686,2.627,2.627,0,0,0,.189-.84h-1.19a3.85,3.85,0,0,1-1.183-.154,1.668,1.668,0,0,1-.735-.448,1.636,1.636,0,0,1-.371-.721,4.024,4.024,0,0,1-.1-.959,3.321,3.321,0,0,1,.154-1.015,2.51,2.51,0,0,1,.455-.847,2.223,2.223,0,0,1,.742-.581,2.3,2.3,0,0,1,1.029-.217,2.6,2.6,0,0,1,.889.154,1.912,1.912,0,0,1,.742.483,2.375,2.375,0,0,1,.5.861,3.866,3.866,0,0,1,.189,1.288V-.224a4,4,0,0,1-.238,1.372,3.529,3.529,0,0,1-.679,1.155,3.25,3.25,0,0,1-1.071.791,3.338,3.338,0,0,1-1.428.294H111.16a3.106,3.106,0,0,1-2.436-.966,3.815,3.815,0,0,1-.868-2.646V-2.7h1.134V-.266a2.71,2.71,0,0,0,.546,1.764,2.18,2.18,0,0,0,1.792.672Zm-.1-4.522a1.113,1.113,0,0,0,.287.861,1.722,1.722,0,0,0,1.113.259h1.106V-2.1a1.916,1.916,0,0,0-.336-1.267,1.213,1.213,0,0,0-.966-.385,1.1,1.1,0,0,0-.889.371A1.541,1.541,0,0,0,112.686-2.352Zm2.856-4.074h-1.274V-7.6h1.274Zm-1.876,0h-1.274V-7.6h1.274Zm5.068,8.6A2.682,2.682,0,0,0,119.742,2a2.076,2.076,0,0,0,.721-.469A2.038,2.038,0,0,0,120.9.84a2.752,2.752,0,0,0,.182-.84H119.9a3.781,3.781,0,0,1-1.176-.154,1.669,1.669,0,0,1-.728-.448,1.636,1.636,0,0,1-.371-.721,4.024,4.024,0,0,1-.105-.959A3.321,3.321,0,0,1,117.67-3.3a2.58,2.58,0,0,1,.448-.847,2.151,2.151,0,0,1,.735-.581,2.3,2.3,0,0,1,1.029-.217,2.6,2.6,0,0,1,.889.154,1.973,1.973,0,0,1,.749.483,2.32,2.32,0,0,1,.511.861,3.866,3.866,0,0,1,.189,1.288v.924h1.246a.23.23,0,0,1,.231.147,1.226,1.226,0,0,1,.063.455,1.338,1.338,0,0,1-.063.476.23.23,0,0,1-.231.154h-1.274a3.931,3.931,0,0,1-.273,1.3,3.384,3.384,0,0,1-.679,1.078,3.2,3.2,0,0,1-1.05.735,3.35,3.35,0,0,1-1.372.273h-1.456l-.084-1.218Zm-.126-4.522a1.113,1.113,0,0,0,.287.861,1.722,1.722,0,0,0,1.113.259h1.106V-2.1a1.888,1.888,0,0,0-.343-1.267,1.218,1.218,0,0,0-.959-.385,1.1,1.1,0,0,0-.889.371A1.541,1.541,0,0,0,118.608-2.352Zm6.874,1.12a3.164,3.164,0,0,1-.889-.917,2.106,2.106,0,0,1-.3-1.113,2.375,2.375,0,0,1,.175-.9,2.32,2.32,0,0,1,.5-.763,2.457,2.457,0,0,1,.791-.532,2.6,2.6,0,0,1,1.043-.2,2.356,2.356,0,0,1,1.008.2,2.15,2.15,0,0,1,.721.532,2.283,2.283,0,0,1,.434.742,2.468,2.468,0,0,1,.147.833,2.566,2.566,0,0,1-1.092,2.114h2.268q.308,0,.308.6,0,.63-.308.63H128.8q-.644,0-1.148-.042a2,2,0,0,1-.784-.2,2.161,2.161,0,0,1-.483.133q-.287.049-.588.07t-.588.028q-.287.007-.483.007h-1.61a.241.241,0,0,1-.245-.147,1.176,1.176,0,0,1-.063-.441,1.392,1.392,0,0,1,.063-.49.24.24,0,0,1,.245-.154ZM126.7-4.424a1.228,1.228,0,0,0-.945.385,1.338,1.338,0,0,0-.357.945,1.309,1.309,0,0,0,.119.553,1.68,1.68,0,0,0,.322.469,2.63,2.63,0,0,0,.448.371,3.476,3.476,0,0,0,.5.273,3.425,3.425,0,0,0,.427-.273,2.267,2.267,0,0,0,.392-.371,2.02,2.02,0,0,0,.287-.455A1.281,1.281,0,0,0,128-3.066a1.369,1.369,0,0,0-.357-.98A1.239,1.239,0,0,0,126.7-4.424ZM128.282-6.9h-1.274V-8.078h1.274Zm-1.876,0h-1.274V-8.078h1.274Zm7.56,6.09a5.9,5.9,0,0,1-.714.378,4.552,4.552,0,0,1-.749.252,5.82,5.82,0,0,1-.875.14Q131.152,0,130.536,0h-.6a.241.241,0,0,1-.245-.147,1.176,1.176,0,0,1-.063-.441,1.392,1.392,0,0,1,.063-.49.24.24,0,0,1,.245-.154h.644q.532,0,.945-.028a5.954,5.954,0,0,0,.763-.1,4,4,0,0,0,.658-.189,4.8,4.8,0,0,0,.63-.3l2.086-1.2q-.112-.252-.217-.441a1.156,1.156,0,0,0-.273-.329,1.118,1.118,0,0,0-.406-.21,2.175,2.175,0,0,0-.6-.07H131.11l.084-1.232h3.136a3.084,3.084,0,0,1,.763.1,1.8,1.8,0,0,1,.728.392,2.91,2.91,0,0,1,.637.84,5.618,5.618,0,0,1,.49,1.442Zm7.7-6.244a1.215,1.215,0,0,1-.924-.3,1,1,0,0,1-.28-.707,1.725,1.725,0,0,1,.175-.707,9.1,9.1,0,0,1,.6-1.043h1.694l-.07.84h-1.274a3.032,3.032,0,0,0-.266.434.663.663,0,0,0-.07.266.352.352,0,0,0,.1.259.568.568,0,0,0,.4.105h2.674l-.042.854Zm.35,5.334a1.674,1.674,0,0,0,1.015-.266.807.807,0,0,0,.357-.672V-4.41h-1.26a1.177,1.177,0,0,0-.987.42,1.743,1.743,0,0,0-.329,1.106,1.143,1.143,0,0,0,.3.9A1.354,1.354,0,0,0,142.016-1.722Zm2.492-.686a1.543,1.543,0,0,0,.21.854.818.818,0,0,0,.742.322h.28a.241.241,0,0,1,.245.147,1.226,1.226,0,0,1,.063.455,1.338,1.338,0,0,1-.063.476A.24.24,0,0,1,145.74,0h-.28a2.249,2.249,0,0,1-1.127-.259,1.534,1.534,0,0,1-.665-.931,1.311,1.311,0,0,1-.4.336,2.28,2.28,0,0,1-.483.2,3.173,3.173,0,0,1-.518.1,4.706,4.706,0,0,1-.49.028,2.024,2.024,0,0,1-1.54-.56,2.379,2.379,0,0,1-.532-1.694,3.56,3.56,0,0,1,.147-1.015,2.783,2.783,0,0,1,.441-.889,2.231,2.231,0,0,1,.735-.63,2.134,2.134,0,0,1,1.029-.238h2.45ZM147.7-1.232a.241.241,0,0,1,.245.147,1.226,1.226,0,0,1,.063.455,1.338,1.338,0,0,1-.063.476A.24.24,0,0,1,147.7,0h-2.31a.241.241,0,0,1-.245-.147,1.176,1.176,0,0,1-.063-.441,1.392,1.392,0,0,1,.063-.49.24.24,0,0,1,.245-.154Zm-.168,0q1.064,0,1.064-.9v-.434a2.713,2.713,0,0,1,.623-1.883,2.206,2.206,0,0,1,1.729-.693,2.506,2.506,0,0,1,1.008.189,2.068,2.068,0,0,1,.728.518,2.146,2.146,0,0,1,.441.791,3.309,3.309,0,0,1,.147,1.008v.364a.953.953,0,0,0,.3.812,1.151,1.151,0,0,0,.707.224h.224a.241.241,0,0,1,.245.147,1.226,1.226,0,0,1,.063.455,1.338,1.338,0,0,1-.063.476A.24.24,0,0,1,154.5,0h-.224a2.243,2.243,0,0,1-.427-.042,1.456,1.456,0,0,1-.413-.147,1.537,1.537,0,0,1-.378-.294,1.759,1.759,0,0,1-.322-.5,1.847,1.847,0,0,1-.868.791A2.778,2.778,0,0,1,150.864,0a2.564,2.564,0,0,1-1.05-.217,1.606,1.606,0,0,1-.77-.735,1.592,1.592,0,0,1-.308.483,1.538,1.538,0,0,1-.378.294,1.311,1.311,0,0,1-.413.14,2.6,2.6,0,0,1-.413.035h-.182a.241.241,0,0,1-.245-.147,1.176,1.176,0,0,1-.063-.441,1.392,1.392,0,0,1,.063-.49.24.24,0,0,1,.245-.154Zm4.62-1.274a1.726,1.726,0,0,0-.273-1.008,1.087,1.087,0,0,0-.959-.392,1.118,1.118,0,0,0-.931.378,1.669,1.669,0,0,0-.3,1.064,1.179,1.179,0,0,0,.343.924,1.26,1.26,0,0,0,.875.308,1.226,1.226,0,0,0,.938-.329A1.332,1.332,0,0,0,152.152-2.506ZM157.7-4.354a1.228,1.228,0,0,0-.945.385,1.338,1.338,0,0,0-.357.945,1.262,1.262,0,0,0,.119.546,1.616,1.616,0,0,0,.322.455,2.827,2.827,0,0,0,.448.364,4.873,4.873,0,0,0,.5.287q.21-.126.427-.287a2.6,2.6,0,0,0,.392-.357,1.751,1.751,0,0,0,.287-.441A1.281,1.281,0,0,0,159-3a1.369,1.369,0,0,0-.357-.98A1.239,1.239,0,0,0,157.7-4.354ZM154.154,0a.241.241,0,0,1-.245-.147,1.176,1.176,0,0,1-.063-.441,1.392,1.392,0,0,1,.063-.49.24.24,0,0,1,.245-.154h2.366a3.243,3.243,0,0,1-.868-.861,1.936,1.936,0,0,1-.322-1.1,2.407,2.407,0,0,1,.168-.889,2.223,2.223,0,0,1,.483-.749,2.361,2.361,0,0,1,.777-.518,2.628,2.628,0,0,1,1.036-.2,2.38,2.38,0,0,1,1,.2,2.06,2.06,0,0,1,.707.518,2.184,2.184,0,0,1,.42.728,2.517,2.517,0,0,1,.14.826,2.3,2.3,0,0,1-.273,1.127,2.989,2.989,0,0,1-.819.917h2.24a1.029,1.029,0,0,0,.686-.2.658.658,0,0,0,.238-.525,1.268,1.268,0,0,0-.336-.756l-2.45-2.9.854-.8,2.478,2.954a3.246,3.246,0,0,1,.546.882,2.24,2.24,0,0,1,.154.8,1.736,1.736,0,0,1-.14.7,1.641,1.641,0,0,1-.4.56,1.885,1.885,0,0,1-.651.378,2.656,2.656,0,0,1-.9.14h-1.54q-.644,0-1.141-.042a2.1,2.1,0,0,1-.791-.2,2.161,2.161,0,0,1-.483.133q-.287.049-.588.07t-.588.028Q155.876,0,155.68,0ZM7.77,16.768q1.078,0,1.078-1.022V13.954H10v1.792a1.056,1.056,0,0,0,.1.476.9.9,0,0,0,.252.315,1.021,1.021,0,0,0,.357.175,1.546,1.546,0,0,0,.413.056h.252a.241.241,0,0,1,.245.147,1.226,1.226,0,0,1,.063.455,1.338,1.338,0,0,1-.063.476.24.24,0,0,1-.245.154h-.28a2.489,2.489,0,0,1-.959-.182,1.523,1.523,0,0,1-.735-.714,1.685,1.685,0,0,1-.742.714A2.2,2.2,0,0,1,7.77,18H2.912a2.522,2.522,0,0,1-.987-.175A1.766,1.766,0,0,1,.875,16.67a2.828,2.828,0,0,1-.119-.826V13.912H1.9v1.652a1.35,1.35,0,0,0,.266.875,1.248,1.248,0,0,0,1.008.329Zm-.826-4H5.67V11.588H6.944Zm-1.876,0H3.794V11.588H5.068Zm6.51,4q1.106,0,1.106-1.022V13.954h1.148v1.792a1.056,1.056,0,0,0,.1.476.9.9,0,0,0,.252.315,1.021,1.021,0,0,0,.357.175,1.546,1.546,0,0,0,.413.056q1.2,0,1.2-1.022V13.954H17.3v1.792a.935.935,0,0,0,.3.8,1.151,1.151,0,0,0,.707.224,1.052,1.052,0,0,0,.756-.266.993.993,0,0,0,.28-.756V13.954H20.5V15.8a2.192,2.192,0,0,1-.574,1.631A2.134,2.134,0,0,1,18.354,18a2.416,2.416,0,0,1-.931-.182,1.523,1.523,0,0,1-.735-.714,1.631,1.631,0,0,1-.784.714,2.576,2.576,0,0,1-.952.182,2.633,2.633,0,0,1-.987-.182,1.51,1.51,0,0,1-.749-.714,1.664,1.664,0,0,1-.756.714,2.365,2.365,0,0,1-.924.182h-.518a.241.241,0,0,1-.245-.147,1.176,1.176,0,0,1-.063-.441,1.392,1.392,0,0,1,.063-.49.24.24,0,0,1,.245-.154ZM21.84,9.32h1.148V18H21.84Zm8.484,10.85a3.9,3.9,0,0,0,1.05-.133,2.912,2.912,0,0,0,.826-.364,1.715,1.715,0,0,0,.539-.546,1.322,1.322,0,0,0,.189-.693.859.859,0,0,0-.182-.56.872.872,0,0,0-.7-.224H29.624V15.116a2.878,2.878,0,0,1,.161-.98A2.108,2.108,0,0,1,31,12.862a2.565,2.565,0,0,1,.987-.182H33.6l.07,1.232H31.948a1.226,1.226,0,0,0-.826.3,1.126,1.126,0,0,0-.35.9v1.316h1.484a2.507,2.507,0,0,1,.882.133,1.33,1.33,0,0,1,.553.371,1.389,1.389,0,0,1,.287.567,2.911,2.911,0,0,1,.084.721,2.8,2.8,0,0,1-.28,1.246,3.192,3.192,0,0,1-.763,1,3.616,3.616,0,0,1-1.134.672,3.962,3.962,0,0,1-1.407.245h-1.2a3.106,3.106,0,0,1-2.436-.966,3.815,3.815,0,0,1-.868-2.646V15.3H27.1v2.436A2.71,2.71,0,0,0,27.65,19.5a2.18,2.18,0,0,0,1.792.672Zm3.458,0h.238a2.687,2.687,0,0,0,1.1-.2,2.131,2.131,0,0,0,.749-.539,2.176,2.176,0,0,0,.434-.763,2.835,2.835,0,0,0,.14-.889V13.954H37.59v3.822a3.959,3.959,0,0,1-.259,1.449,3.512,3.512,0,0,1-.714,1.148,3.215,3.215,0,0,1-1.064.749,3.269,3.269,0,0,1-1.323.266h-.378ZM40.838,18a2.52,2.52,0,0,1-.728-.1,1.463,1.463,0,0,1-.609-.357,1.777,1.777,0,0,1-.413-.665,2.97,2.97,0,0,1-.154-1.029V9.32h1.148v6.272a1.435,1.435,0,0,0,.231.854.843.843,0,0,0,.735.322h.28q.308,0,.308.6,0,.63-.308.63Zm6.244-2.016a1.471,1.471,0,0,0,.5.616,1.363,1.363,0,0,0,.721.168h.868a.241.241,0,0,1,.245.147,1.226,1.226,0,0,1,.063.455,1.338,1.338,0,0,1-.063.476.24.24,0,0,1-.245.154H48.23a2.272,2.272,0,0,1-.784-.119,1.658,1.658,0,0,1-.546-.322,1.731,1.731,0,0,1-.371-.483,4.14,4.14,0,0,1-.259-.616l-1.26.728a5.9,5.9,0,0,1-.714.378,4.552,4.552,0,0,1-.749.252,5.82,5.82,0,0,1-.875.14Q42.2,18,41.58,18h-.6a.241.241,0,0,1-.245-.147,1.176,1.176,0,0,1-.063-.441,1.392,1.392,0,0,1,.063-.49.24.24,0,0,1,.245-.154h.644q.532,0,.945-.028a5.953,5.953,0,0,0,.763-.1,4,4,0,0,0,.658-.189,4.8,4.8,0,0,0,.63-.3l2.086-1.2q-.112-.252-.217-.441a1.156,1.156,0,0,0-.273-.329,1.118,1.118,0,0,0-.406-.21,2.174,2.174,0,0,0-.6-.07H42.154l.084-1.232h3.136a3.084,3.084,0,0,1,.763.1,1.8,1.8,0,0,1,.728.392A2.91,2.91,0,0,1,47.5,14a5.618,5.618,0,0,1,.49,1.442ZM45.094,20.8H43.722V19.6h1.372Zm5-4.032a1.119,1.119,0,0,0,.791-.266.98.98,0,0,0,.287-.756V13.954h1.148V15.8a2.208,2.208,0,0,1-.567,1.631A2.129,2.129,0,0,1,50.176,18H48.818a.241.241,0,0,1-.245-.147,1.176,1.176,0,0,1-.063-.441,1.392,1.392,0,0,1,.063-.49.24.24,0,0,1,.245-.154Zm2.324-4.536H51.142V11.056h1.274Zm-1.876,0H49.266V11.056H50.54Zm15.694,3.514a.924.924,0,0,0,.308.8,1.16,1.16,0,0,0,.7.224,1.047,1.047,0,0,0,.763-.266,1.007,1.007,0,0,0,.273-.756V13.954h1.148V15.8a2.208,2.208,0,0,1-.567,1.631A2.129,2.129,0,0,1,67.284,18a2.365,2.365,0,0,1-.924-.182,1.531,1.531,0,0,1-.728-.714,1.638,1.638,0,0,1-.777.714,2.451,2.451,0,0,1-.917.182,1.765,1.765,0,0,1-.728-.133,1.416,1.416,0,0,1-.49-.357v.266a4,4,0,0,1-.238,1.372A3.529,3.529,0,0,1,61.8,20.3a3.231,3.231,0,0,1-1.078.791,3.385,3.385,0,0,1-1.435.294h-.854A3.106,3.106,0,0,1,56,20.422a3.815,3.815,0,0,1-.868-2.646V15.3h1.134v2.436a2.71,2.71,0,0,0,.546,1.764,2.18,2.18,0,0,0,1.792.672h.616a2.731,2.731,0,0,0,1.085-.2,2.06,2.06,0,0,0,.749-.532,2.148,2.148,0,0,0,.434-.784,3.126,3.126,0,0,0,.14-.938V13.954h1.134v1.834a.882.882,0,0,0,.315.721,1.248,1.248,0,0,0,.819.259q1.2,0,1.2-1.022V13.954h1.134Zm.07-5.32H65.016V9.264H66.3Zm.924,1.806H65.954V11.056h1.274Zm-1.876,0H64.078V11.056h1.274Zm6.51,7.938A2.682,2.682,0,0,0,72.87,20a2.076,2.076,0,0,0,.721-.469,2.038,2.038,0,0,0,.441-.686,2.752,2.752,0,0,0,.182-.84h-1.19a3.781,3.781,0,0,1-1.176-.154,1.669,1.669,0,0,1-.728-.448,1.636,1.636,0,0,1-.371-.721,4.024,4.024,0,0,1-.105-.959A3.321,3.321,0,0,1,70.8,14.7a2.58,2.58,0,0,1,.448-.847,2.151,2.151,0,0,1,.735-.581,2.3,2.3,0,0,1,1.029-.217,2.6,2.6,0,0,1,.889.154,1.972,1.972,0,0,1,.749.483,2.32,2.32,0,0,1,.511.861,3.866,3.866,0,0,1,.189,1.288v.924h1.246a.23.23,0,0,1,.231.147,1.226,1.226,0,0,1,.063.455,1.338,1.338,0,0,1-.063.476.23.23,0,0,1-.231.154H75.32a3.931,3.931,0,0,1-.273,1.3,3.384,3.384,0,0,1-.679,1.078,3.2,3.2,0,0,1-1.05.735,3.35,3.35,0,0,1-1.372.273H70.49l-.084-1.218Zm-.126-4.522a1.113,1.113,0,0,0,.287.861,1.722,1.722,0,0,0,1.113.259h1.106V15.9a1.888,1.888,0,0,0-.343-1.267,1.218,1.218,0,0,0-.959-.385,1.1,1.1,0,0,0-.889.371A1.541,1.541,0,0,0,71.736,15.648Zm8.05-2a1.228,1.228,0,0,0-.945.385,1.338,1.338,0,0,0-.357.945,1.262,1.262,0,0,0,.119.546,1.616,1.616,0,0,0,.322.455,2.827,2.827,0,0,0,.448.364,4.876,4.876,0,0,0,.5.287q.21-.126.427-.287a2.6,2.6,0,0,0,.392-.357,1.75,1.75,0,0,0,.287-.441A1.281,1.281,0,0,0,81.088,15a1.369,1.369,0,0,0-.357-.98A1.239,1.239,0,0,0,79.786,13.646ZM76.244,18A.241.241,0,0,1,76,17.853a1.176,1.176,0,0,1-.063-.441,1.392,1.392,0,0,1,.063-.49.24.24,0,0,1,.245-.154H78.61a3.243,3.243,0,0,1-.868-.861,1.936,1.936,0,0,1-.322-1.1,2.407,2.407,0,0,1,.168-.889,2.223,2.223,0,0,1,.483-.749,2.361,2.361,0,0,1,.777-.518,2.628,2.628,0,0,1,1.036-.2,2.379,2.379,0,0,1,1,.2,2.06,2.06,0,0,1,.707.518,2.184,2.184,0,0,1,.42.728,2.518,2.518,0,0,1,.14.826,2.3,2.3,0,0,1-.273,1.127,2.99,2.99,0,0,1-.819.917H83.3a1.029,1.029,0,0,0,.686-.2.658.658,0,0,0,.238-.525,1.268,1.268,0,0,0-.336-.756l-2.45-2.9.854-.8,2.478,2.954a3.246,3.246,0,0,1,.546.882,2.24,2.24,0,0,1,.154.8,1.737,1.737,0,0,1-.14.7,1.641,1.641,0,0,1-.4.56,1.885,1.885,0,0,1-.651.378,2.656,2.656,0,0,1-.9.14h-1.54q-.644,0-1.141-.042a2.1,2.1,0,0,1-.791-.2,2.161,2.161,0,0,1-.483.133q-.287.049-.588.07t-.588.028Q77.966,18,77.77,18Zm16.31,2.17a3.9,3.9,0,0,0,1.05-.133,2.912,2.912,0,0,0,.826-.364,1.715,1.715,0,0,0,.539-.546,1.322,1.322,0,0,0,.189-.693.859.859,0,0,0-.182-.56.872.872,0,0,0-.7-.224H91.854V15.116a2.878,2.878,0,0,1,.161-.98,2.108,2.108,0,0,1,1.218-1.274,2.565,2.565,0,0,1,.987-.182h1.61l.07,1.232H94.178a1.226,1.226,0,0,0-.826.3,1.126,1.126,0,0,0-.35.9v1.316h1.484a2.507,2.507,0,0,1,.882.133,1.329,1.329,0,0,1,.553.371,1.389,1.389,0,0,1,.287.567,2.911,2.911,0,0,1,.084.721,2.8,2.8,0,0,1-.28,1.246,3.193,3.193,0,0,1-.763,1,3.616,3.616,0,0,1-1.134.672,3.962,3.962,0,0,1-1.407.245H91.5a3.106,3.106,0,0,1-2.436-.966,3.815,3.815,0,0,1-.868-2.646V15.3h1.134v2.436A2.71,2.71,0,0,0,89.88,19.5a2.18,2.18,0,0,0,1.792.672ZM99.47,18a2.52,2.52,0,0,1-.728-.1,1.463,1.463,0,0,1-.609-.357,1.777,1.777,0,0,1-.413-.665,2.97,2.97,0,0,1-.154-1.029V9.32h1.148v6.272a1.435,1.435,0,0,0,.231.854.843.843,0,0,0,.735.322h.28q.308,0,.308.6,0,.63-.308.63Zm3.682-4.354a1.228,1.228,0,0,0-.945.385,1.338,1.338,0,0,0-.357.945,1.262,1.262,0,0,0,.119.546,1.616,1.616,0,0,0,.322.455,2.827,2.827,0,0,0,.448.364,4.876,4.876,0,0,0,.5.287q.21-.126.427-.287a2.6,2.6,0,0,0,.392-.357,1.75,1.75,0,0,0,.287-.441,1.281,1.281,0,0,0,.112-.539,1.369,1.369,0,0,0-.357-.98A1.239,1.239,0,0,0,103.152,13.646ZM99.61,18a.241.241,0,0,1-.245-.147,1.176,1.176,0,0,1-.063-.441,1.392,1.392,0,0,1,.063-.49.24.24,0,0,1,.245-.154h2.366a3.243,3.243,0,0,1-.868-.861,1.936,1.936,0,0,1-.322-1.1,2.407,2.407,0,0,1,.168-.889,2.223,2.223,0,0,1,.483-.749,2.361,2.361,0,0,1,.777-.518,2.628,2.628,0,0,1,1.036-.2,2.379,2.379,0,0,1,1,.2,2.06,2.06,0,0,1,.707.518,2.184,2.184,0,0,1,.42.728,2.518,2.518,0,0,1,.14.826,2.3,2.3,0,0,1-.273,1.127,2.99,2.99,0,0,1-.819.917h2.24a1.029,1.029,0,0,0,.686-.2.658.658,0,0,0,.238-.525,1.268,1.268,0,0,0-.336-.756l-2.45-2.9.854-.8,2.478,2.954a3.246,3.246,0,0,1,.546.882,2.24,2.24,0,0,1,.154.8,1.737,1.737,0,0,1-.14.7,1.641,1.641,0,0,1-.4.56,1.885,1.885,0,0,1-.651.378,2.656,2.656,0,0,1-.9.14h-1.54q-.644,0-1.141-.042a2.1,2.1,0,0,1-.791-.2,2.161,2.161,0,0,1-.483.133q-.287.049-.588.07t-.588.028q-.287.007-.483.007Zm17.332-1.232q1.078,0,1.078-1.022V13.954h1.148v1.792a1.056,1.056,0,0,0,.1.476.9.9,0,0,0,.252.315,1.021,1.021,0,0,0,.357.175,1.546,1.546,0,0,0,.413.056h.252a.241.241,0,0,1,.245.147,1.226,1.226,0,0,1,.063.455,1.338,1.338,0,0,1-.063.476.24.24,0,0,1-.245.154h-.28a2.489,2.489,0,0,1-.959-.182,1.523,1.523,0,0,1-.735-.714,1.685,1.685,0,0,1-.742.714,2.2,2.2,0,0,1-.882.182h-4.858a2.522,2.522,0,0,1-.987-.175,1.766,1.766,0,0,1-1.05-1.155,2.828,2.828,0,0,1-.119-.826V13.912h1.148v1.652a1.35,1.35,0,0,0,.266.875,1.248,1.248,0,0,0,1.008.329Zm-.826-4h-1.274V11.588h1.274Zm-1.876,0h-1.274V11.588h1.274Zm9.534,4a.959.959,0,0,0,.714-.21.731.731,0,0,0,.2-.518,1.564,1.564,0,0,0-.077-.469,1.527,1.527,0,0,0-.4-.567l-2.856-2.842V10.888L126,9.1l.266,1.148-3.78,1.442,2.31,2.324a8.08,8.08,0,0,1,.553.63,3.116,3.116,0,0,1,.343.539,2.074,2.074,0,0,1,.175.511,2.708,2.708,0,0,1,.049.518,1.939,1.939,0,0,1-.154.812,1.516,1.516,0,0,1-.42.553,1.746,1.746,0,0,1-.637.322,2.947,2.947,0,0,1-.805.1h-3.71a.241.241,0,0,1-.245-.147,1.176,1.176,0,0,1-.063-.441,1.392,1.392,0,0,1,.063-.49.24.24,0,0,1,.245-.154Zm5.04,1.008a4.057,4.057,0,0,1-.252,1.449,3.544,3.544,0,0,1-.693,1.148,3.067,3.067,0,0,1-1.05.749,3.269,3.269,0,0,1-1.323.266h-.854l-.07-1.218h.644a2.868,2.868,0,0,0,1.141-.2,2.175,2.175,0,0,0,.77-.539,2.123,2.123,0,0,0,.441-.763,2.835,2.835,0,0,0,.14-.889V13.954h1.148v1.834a.9.9,0,0,0,.3.721,1.17,1.17,0,0,0,.791.259h.154q.308,0,.308.6,0,.63-.308.63h-.154a1.792,1.792,0,0,1-.616-.112,1.088,1.088,0,0,1-.518-.406Zm1.5-1.008q1.106,0,1.106-1.022V13.954h1.148v1.792a1.056,1.056,0,0,0,.1.476.9.9,0,0,0,.252.315,1.021,1.021,0,0,0,.357.175,1.546,1.546,0,0,0,.413.056q1.2,0,1.2-1.022V13.954h1.148v1.792a.935.935,0,0,0,.3.8,1.151,1.151,0,0,0,.707.224,1.052,1.052,0,0,0,.756-.266.993.993,0,0,0,.28-.756V13.954h1.148V15.8a2.192,2.192,0,0,1-.574,1.631,2.134,2.134,0,0,1-1.568.567,2.417,2.417,0,0,1-.931-.182,1.523,1.523,0,0,1-.735-.714,1.631,1.631,0,0,1-.784.714,2.576,2.576,0,0,1-.952.182,2.633,2.633,0,0,1-.987-.182,1.51,1.51,0,0,1-.749-.714,1.664,1.664,0,0,1-.756.714,2.365,2.365,0,0,1-.924.182h-.518a.241.241,0,0,1-.245-.147,1.176,1.176,0,0,1-.063-.441,1.392,1.392,0,0,1,.063-.49.24.24,0,0,1,.245-.154Zm5.8-6.342H134.82V9.264h1.288Zm.924,1.806h-1.274V11.056h1.274Zm-1.876,0h-1.274V11.056h1.274Zm6.874,3.612a2.724,2.724,0,0,1,.112-.791,3.594,3.594,0,0,1,.329-.749,5.364,5.364,0,0,1,.553-.777q.336-.4.8-.875l-.644-.644.784-.84q.868.854,1.449,1.484a11.668,11.668,0,0,1,.938,1.134,3.686,3.686,0,0,1,.5.945,2.88,2.88,0,0,1,.147.917,2.323,2.323,0,0,1-.189.938,2.194,2.194,0,0,1-.532.749,2.469,2.469,0,0,1-.8.49,2.823,2.823,0,0,1-1.008.175,2.983,2.983,0,0,1-1-.161,2.3,2.3,0,0,1-.77-.441,1.937,1.937,0,0,1-.49-.679A2.155,2.155,0,0,1,142.03,15.844Zm3.822-.252a1.55,1.55,0,0,0-.266-.889,4.669,4.669,0,0,0-.413-.546q-.259-.3-.665-.693a9.393,9.393,0,0,0-.7.742,3.932,3.932,0,0,0-.406.574,1.856,1.856,0,0,0-.189.455,1.7,1.7,0,0,0-.049.4,1.073,1.073,0,0,0,.343.8,1.349,1.349,0,0,0,.973.329,1.4,1.4,0,0,0,1-.35A1.1,1.1,0,0,0,145.852,15.592Zm3.514,4.578A2.682,2.682,0,0,0,150.374,20a2.076,2.076,0,0,0,.721-.469,2.037,2.037,0,0,0,.441-.686,2.752,2.752,0,0,0,.182-.84h-1.19a3.781,3.781,0,0,1-1.176-.154,1.669,1.669,0,0,1-.728-.448,1.636,1.636,0,0,1-.371-.721,4.023,4.023,0,0,1-.105-.959A3.321,3.321,0,0,1,148.3,14.7a2.58,2.58,0,0,1,.448-.847,2.151,2.151,0,0,1,.735-.581,2.3,2.3,0,0,1,1.029-.217,2.6,2.6,0,0,1,.889.154,1.972,1.972,0,0,1,.749.483,2.32,2.32,0,0,1,.511.861,3.866,3.866,0,0,1,.189,1.288v1.932a4.112,4.112,0,0,1-.231,1.372,3.434,3.434,0,0,1-.672,1.155,3.25,3.25,0,0,1-1.071.791,3.338,3.338,0,0,1-1.428.294h-1.456l-.084-1.218Zm-.126-4.522a1.113,1.113,0,0,0,.287.861,1.722,1.722,0,0,0,1.113.259h1.106V15.9a1.888,1.888,0,0,0-.343-1.267,1.218,1.218,0,0,0-.959-.385,1.1,1.1,0,0,0-.889.371A1.541,1.541,0,0,0,149.24,15.648Zm7.21.14a.9.9,0,0,0,.3.721,1.149,1.149,0,0,0,.777.259h.154q.308,0,.308.6,0,.63-.308.63h-.154a1.792,1.792,0,0,1-.616-.112,1.088,1.088,0,0,1-.518-.406v.294a4.057,4.057,0,0,1-.252,1.449,3.544,3.544,0,0,1-.693,1.148,3.085,3.085,0,0,1-1.043.749,3.22,3.22,0,0,1-1.316.266h-.364l-.1-1.218h.252a2.687,2.687,0,0,0,1.1-.2,2.131,2.131,0,0,0,.749-.539,2.176,2.176,0,0,0,.434-.763,2.835,2.835,0,0,0,.14-.889V13.954h1.148Zm2-6.93,4.2-1.652.2.84-4.354,1.722Zm2.464,7.91a.959.959,0,0,0,.714-.21.731.731,0,0,0,.2-.518,1.563,1.563,0,0,0-.077-.469,1.527,1.527,0,0,0-.4-.567l-2.856-2.842V10.888L163.142,9.1l.266,1.148-3.78,1.442,2.31,2.324a8.079,8.079,0,0,1,.553.63,3.116,3.116,0,0,1,.343.539,2.074,2.074,0,0,1,.175.511,2.708,2.708,0,0,1,.049.518,1.939,1.939,0,0,1-.154.812,1.516,1.516,0,0,1-.42.553,1.746,1.746,0,0,1-.637.322,2.947,2.947,0,0,1-.8.1h-3.71a.241.241,0,0,1-.245-.147,1.176,1.176,0,0,1-.063-.441,1.392,1.392,0,0,1,.063-.49.24.24,0,0,1,.245-.154Z" transform="translate(-0.228 10.314)" fill="#04165d" stroke="rgba(0,0,0,0)" stroke-miterlimit="10" stroke-width="1"/>
</svg>
