<svg xmlns="http://www.w3.org/2000/svg" width="144.062" height="33.028" viewBox="0 0 144.062 33.028">
  <g id="english-logo" transform="translate(0.5 0.5)">
    <path id="Path_47" data-name="Path 47" d="M197.6,425.739a1.594,1.594,0,0,1-2.25-.089l-7.7-8.112V413l10.029,10.567a1.484,1.484,0,0,1,.434,1.112A1.462,1.462,0,0,1,197.6,425.739Zm-24.093.424a1.56,1.56,0,0,1-1.136-.443,1.491,1.491,0,0,1-.457-1.1v-17.77a1.465,1.465,0,0,1,.457-1.087,1.611,1.611,0,0,1,2.254,0,1.461,1.461,0,0,1,.457,1.087v17.77a1.485,1.485,0,0,1-.457,1.1A1.546,1.546,0,0,1,173.5,426.163ZM151.4,405.3a1.568,1.568,0,0,0-1.135.46,1.52,1.52,0,0,0,0,2.174,1.62,1.62,0,0,0,1.135.444h7.2v16.238a1.48,1.48,0,0,0,.473,1.1,1.633,1.633,0,0,0,2.238,0,1.5,1.5,0,0,0,.457-1.1V408.378H168.3a1.6,1.6,0,0,0,1.119-.444,1.52,1.52,0,0,0,0-2.174,1.549,1.549,0,0,0-1.119-.46Zm122.178-.018a1.772,1.772,0,0,1,.67-.126h16.9a1.72,1.72,0,0,1,.659.126,1.771,1.771,0,0,1,.563.375h0a1.6,1.6,0,0,1,.376.538,1.74,1.74,0,0,1,0,1.3,1.639,1.639,0,0,1-.377.542l0,0a1.831,1.831,0,0,1-.562.361,1.753,1.753,0,0,1-.658.123h-6.378v16.1a1.687,1.687,0,0,1-.124.65,1.716,1.716,0,0,1-.374.552l0,0a1.691,1.691,0,0,1-.558.365,1.9,1.9,0,0,1-1.33,0,1.69,1.69,0,0,1-.557-.365h0a1.709,1.709,0,0,1-.387-.552,1.637,1.637,0,0,1-.129-.651v-16.1h-7.056a1.766,1.766,0,0,1-1.237-.484l0,0a1.684,1.684,0,0,1-.373-.54,1.712,1.712,0,0,1,0-1.293h0a1.634,1.634,0,0,1,.374-.541h0A1.757,1.757,0,0,1,273.583,405.282Zm-21.79-.1a1.718,1.718,0,0,1,.871.542L259,412.55h0a1.714,1.714,0,0,1,.35.564h0a1.633,1.633,0,0,1,.1.655,1.558,1.558,0,0,1-.572,1.157h0a1.7,1.7,0,0,1-.576.34,1.811,1.811,0,0,1-.678.092,1.689,1.689,0,0,1-1.188-.548h0l-3.32-3.584v13.389a1.678,1.678,0,0,1-.125.65,1.708,1.708,0,0,1-.374.552l0,0a1.728,1.728,0,0,1-.56.363h0a1.78,1.78,0,0,1-.662.122,1.831,1.831,0,0,1-.669-.121,1.776,1.776,0,0,1-.568-.363l0,0a1.757,1.757,0,0,1-.371-.551,1.671,1.671,0,0,1-.126-.65v-17.77a1.63,1.63,0,0,1,.284-.97,1.738,1.738,0,0,1,.839-.6h0A1.734,1.734,0,0,1,251.793,405.18Zm-23.943,8.995a1.774,1.774,0,0,1,.67-.126h16.9a1.722,1.722,0,0,1,.659.126,1.777,1.777,0,0,1,.563.376h0a1.6,1.6,0,0,1,.376.538,1.662,1.662,0,0,1,.126.651,1.628,1.628,0,0,1-.125.638,1.722,1.722,0,0,1-.375.548l0,0a1.726,1.726,0,0,1-1.222.485h-16.9a1.821,1.821,0,0,1-.669-.121,1.769,1.769,0,0,1-.568-.363l0,0a1.776,1.776,0,0,1-.371-.547,1.626,1.626,0,0,1-.127-.639,1.655,1.655,0,0,1,.126-.647h0a1.637,1.637,0,0,1,.374-.541h0A1.751,1.751,0,0,1,227.85,414.175Zm18.225-5.777a1.752,1.752,0,0,1-.658.123h-16.9a1.767,1.767,0,0,1-1.237-.484l0,0a1.676,1.676,0,0,1-.373-.54,1.716,1.716,0,0,1,0-1.293h0a1.637,1.637,0,0,1,.374-.541,1.722,1.722,0,0,1,1.24-.5h16.9a1.721,1.721,0,0,1,.659.126,1.772,1.772,0,0,1,.563.375h0a1.6,1.6,0,0,1,.376.538,1.74,1.74,0,0,1,0,1.3,1.637,1.637,0,0,1-.377.542l0,0A1.831,1.831,0,0,1,246.075,408.4Zm-18.224,14.666a1.823,1.823,0,0,1,.669-.121h16.9a1.725,1.725,0,0,1,1.221.484l0,0a1.717,1.717,0,0,1,.374.548,1.624,1.624,0,0,1,.125.638,1.678,1.678,0,0,1-.125.65,1.7,1.7,0,0,1-.374.552l0,0a1.721,1.721,0,0,1-1.221.484h-16.9a1.83,1.83,0,0,1-.669-.121,1.776,1.776,0,0,1-.568-.363l0,0a1.756,1.756,0,0,1-.371-.551,1.671,1.671,0,0,1-.127-.65,1.615,1.615,0,0,1,.127-.638,1.776,1.776,0,0,1,.371-.547l0,0A1.76,1.76,0,0,1,227.851,423.064Zm39.765-17.781a1.742,1.742,0,0,1,.667-.126,1.721,1.721,0,0,1,.659.126,1.772,1.772,0,0,1,.563.375h0a1.6,1.6,0,0,1,.376.538,1.661,1.661,0,0,1,.126.65v17.77a1.548,1.548,0,0,1-1.108,1.572h0a1.7,1.7,0,0,1-.616.119,1.787,1.787,0,0,1-.709-.138,1.715,1.715,0,0,1-.583-.416h0l-6.337-6.839h0a1.729,1.729,0,0,1-.35-.565h0a1.645,1.645,0,0,1-.1-.655,1.611,1.611,0,0,1,.162-.637,1.643,1.643,0,0,1,.409-.518h0a1.742,1.742,0,0,1,.583-.342,1.79,1.79,0,0,1,.674-.091h0a1.733,1.733,0,0,1,.644.163,1.82,1.82,0,0,1,.541.4h0l3.32,3.579v-13.4a1.621,1.621,0,0,1,.131-.652,1.6,1.6,0,0,1,.387-.536A1.684,1.684,0,0,1,267.617,405.283Zm-45.087,21.023a1.72,1.72,0,0,1-1.221-.484l0,0a1.766,1.766,0,0,1-.372-.551,1.671,1.671,0,0,1-.126-.65V410.7l-6.95,6.266h0a1.791,1.791,0,0,1-.543.335,1.807,1.807,0,0,1-1.269,0,1.693,1.693,0,0,1-.534-.337h0l-6.956-6.266v13.92a1.678,1.678,0,0,1-.125.65,1.7,1.7,0,0,1-.374.552l0,0a1.722,1.722,0,0,1-.56.363h0a1.778,1.778,0,0,1-.662.122,1.83,1.83,0,0,1-.669-.121,1.775,1.775,0,0,1-.568-.363l0,0a1.755,1.755,0,0,1-.371-.551,1.671,1.671,0,0,1-.127-.65v-17.77a1.638,1.638,0,0,1,.261-.935,1.7,1.7,0,0,1,.774-.606h0a1.8,1.8,0,0,1,.991-.14,1.717,1.717,0,0,1,.882.443h0l8.679,7.835,8.679-7.835h0a1.736,1.736,0,0,1,.883-.443,1.817,1.817,0,0,1,.995.14h0a1.683,1.683,0,0,1,.771.606,1.65,1.65,0,0,1,.259.935v17.77a1.756,1.756,0,0,1-.516,1.2h-.013a1.592,1.592,0,0,1-.541.364h0A1.8,1.8,0,0,1,222.529,426.306Z" transform="translate(-149.812 -394.392)" fill="#04165d" stroke="rgba(0,0,0,0)" stroke-miterlimit="10" stroke-width="1"/>
    <path id="Path_48" data-name="Path 48" d="M207.107,413.014a2.468,2.468,0,0,0,1.814,2.512,2.773,2.773,0,0,0,3.177-.708l25.3-26.456a2.555,2.555,0,0,0-.213-3.83,2.946,2.946,0,0,0-4.045.22l-20.3,21.233,0-9.109a2.524,2.524,0,0,0-.836-1.892,2.859,2.859,0,0,0-2.042-.8,2.752,2.752,0,0,0-2.017.781,2.585,2.585,0,0,0-.844,1.923Z" transform="translate(-180.205 -383.831)" fill="#4af3f8" stroke="rgba(0,0,0,0)" stroke-miterlimit="10" stroke-width="1"/>
  </g>
</svg>
