<svg xmlns="http://www.w3.org/2000/svg" xmlns:xlink="http://www.w3.org/1999/xlink" width="22.143" height="20.142" viewBox="0 0 22.143 20.142">
  <defs>
    <clipPath id="clip-path">
      <rect y="1" width="22.142" height="20.142" fill="none"/>
    </clipPath>
  </defs>
  <g id="file" transform="translate(0 -1)" clip-path="url(#clip-path)" style="isolation: isolate">
    <g id="_5_Paper_2" data-name="5 Paper_2">
      <path id="_5_Paper_2-2" data-name="5 Paper_2" d="M17.1,25.571H6.064a2.638,2.638,0,0,1-2.635-2.635V6.064A2.638,2.638,0,0,1,6.064,3.429H22.936A2.614,2.614,0,0,1,24.8,4.2a2.654,2.654,0,0,1,.772,1.864V17.1a2.618,2.618,0,0,1-.77,1.861L18.96,24.8A2.618,2.618,0,0,1,17.1,25.571Zm2.146-8.963a2.64,2.64,0,0,0-2.637,2.637V22.72a.529.529,0,0,0,.528.524.531.531,0,0,0,.374-.156l5.578-5.578a.528.528,0,0,0-.369-.9Z" transform="translate(25.571 25.571) rotate(180)" fill="#f5f5f5"/>
    </g>
  </g>
</svg>
