<svg xmlns="http://www.w3.org/2000/svg" xmlns:xlink="http://www.w3.org/1999/xlink" width="37.862" height="38.624" viewBox="0 0 37.862 38.624">
  <defs>
    <linearGradient id="linear-gradient" x1="1.836" y1="1.621" x2="0.126" y2="0.191" gradientUnits="objectBoundingBox">
      <stop offset="0" stop-color="#75c9db"/>
      <stop offset="1" stop-color="#04165d"/>
    </linearGradient>
  </defs>
  <path id="instagram-icon" d="M1125.861,808h14.032a11.443,11.443,0,0,0,11.415-11.415V781.786a11.443,11.443,0,0,0-11.415-11.414h-14.032a11.444,11.444,0,0,0-11.415,11.414v14.795A11.444,11.444,0,0,0,1125.861,808Zm16.724-32.032a2.555,2.555,0,1,1-2.554,2.555,2.555,2.555,0,0,1,2.554-2.555Zm-9.708,3.544a9.267,9.267,0,0,1,6.573,2.723l0,0a9.268,9.268,0,0,1,2.726,6.569q0,.191-.008.379v0c0,.126.008.251.008.379a9.268,9.268,0,0,1-2.726,6.569l0,0a9.3,9.3,0,0,1-15.868-6.572c0-.128,0-.253.008-.379v0c-.005-.126-.008-.252-.008-.379a9.3,9.3,0,0,1,9.295-9.3Zm6.218,10.027v.031a6.2,6.2,0,0,1-1.815,4.4h-.006a6.217,6.217,0,0,1-10.614-4.4v-.031h.042c-.013-.116-.024-.233-.031-.35s.017-.235.031-.351h-.042V788.8a6.217,6.217,0,0,1,10.614-4.4h.006a6.192,6.192,0,0,1,1.815,4.4v.031h-.043c.014.116.024.233.031.351s-.018.234-.031.35Zm9.136-.7v7.748a8.364,8.364,0,0,1-8.337,8.336h-14.032a8.364,8.364,0,0,1-8.337-8.336V781.786a8.365,8.365,0,0,1,8.337-8.336h14.032a8.365,8.365,0,0,1,8.337,8.336Z" transform="translate(-1113.946 -769.872)" stroke="rgba(0,0,0,0)" stroke-width="1" fill-rule="evenodd" fill="url(#linear-gradient)"/>
</svg>
