<svg id="karshenas" xmlns="http://www.w3.org/2000/svg" width="35.347" height="35.325" viewBox="0 0 35.347 35.325">
  <path id="Path_155" data-name="Path 155" d="M1404.053,1379.51c0-1.22-.09-2.448.016-3.66a8.669,8.669,0,0,1,17.12-.748,9.345,9.345,0,0,1,.171,1.784c.022,1.753.011,3.506.007,5.258a8.672,8.672,0,0,1-17.216,1.594,36.261,36.261,0,0,1-.157-4.093c0-.045,0-.09,0-.136Z" transform="translate(-1395.011 -1361.871)" fill="#f5f5f5"/>
  <path id="Path_156" data-name="Path 156" d="M1323.654,1331.776a14.131,14.131,0,0,1,27.862-.034,12.687,12.687,0,0,1,1.349.1,2.878,2.878,0,0,1,2.379,2.789c.021,2.024.024,4.048,0,6.072a2.922,2.922,0,0,1-2.86,2.845c-.281.008-.562,0-.8,0a28.022,28.022,0,0,1-.87,2.791,13.9,13.9,0,0,1-11.958,8.928c-.34.038-.685.05-1.028.055a1.182,1.182,0,1,1-.043-2.352,11.255,11.255,0,0,0,5.877-1.642,11.512,11.512,0,0,0,5.784-9.939c.075-2.488.039-4.98.008-7.47a11.773,11.773,0,0,0-23.453-1.237,13.636,13.636,0,0,0-.088,1.615c-.009,2.625,0,5.25,0,7.875a1.2,1.2,0,0,1-1.375,1.374,15.082,15.082,0,0,1-2.127-.073,2.844,2.844,0,0,1-2.378-2.784c-.019-2.024-.023-4.048,0-6.072a2.921,2.921,0,0,1,2.826-2.84C1323.049,1331.768,1323.343,1331.776,1323.654,1331.776Z" transform="translate(-1319.913 -1319.997)" fill="#f5f5f5"/>
</svg>
