<svg xmlns="http://www.w3.org/2000/svg" width="121.468" height="44.818" viewBox="0 0 121.468 44.818">
  <g id="logo" transform="translate(0.128)">
    <path id="Path_63" data-name="Path 63" d="M1062.767,172.459a2.218,2.218,0,1,1-2.218,2.219A2.218,2.218,0,0,1,1062.767,172.459Z" transform="translate(-970.292 -136.297)" fill="#4af3f8" fill-rule="evenodd"/>
    <path id="Path_64" data-name="Path 64" d="M1068.735,172.459a2.218,2.218,0,1,1-2.218,2.219A2.218,2.218,0,0,1,1068.735,172.459Z" transform="translate(-970.892 -136.297)" fill="#4af3f8" fill-rule="evenodd"/>
    <path id="Path_65" data-name="Path 65" d="M967.479,163.386h13.827q4.213,0,4.211-4.41v-3.3h2.911v3.248c0,4.976-2.392,7.477-7.168,7.477H967.531a7.426,7.426,0,0,1-5.486-1.859,7.549,7.549,0,0,1-1.854-5.549v-3.37h2.917v3.353c0,2.933,1.459,4.41,4.371,4.41ZM987,170.64h-1.173v2.935l1.207-.017c3.1-.044,5.478-.821,7.106-2.38a8.8,8.8,0,0,0,2.448-6.653v-8.964l-2.917.017v8.947a5.856,5.856,0,0,1-1.711,4.548A7.1,7.1,0,0,1,987,170.64Zm23.652-4.24a7.085,7.085,0,0,1-2.489,5.75c-1.656,1.381-4.061,2.077-7.2,2.077h-1.241v-2.946h1.139a8.984,8.984,0,0,0,5.149-1.241,4.139,4.139,0,0,0,1.791-3.6V166.4h-2.712q-5.827,0-5.835-5.68a8.667,8.667,0,0,1,.366-2.58,6.082,6.082,0,0,1,1.081-2.048,4.82,4.82,0,0,1,1.83-1.355,6.3,6.3,0,0,1,2.541-.487,5.166,5.166,0,0,1,4.113,1.693,6.844,6.844,0,0,1,1.464,4.623v2.82h2.363c.28,0-.748.469-.748,1.39v.183c0,.955,1.022,1.442.748,1.442Zm-8.6-5.75c0,1.819,1.007,2.735,3.021,2.735h2.746v-2.831a3.831,3.831,0,0,0-.744-2.552,2.592,2.592,0,0,0-2.071-.869,2.668,2.668,0,0,0-2.2.926,4.02,4.02,0,0,0-.755,2.591Zm10.812,2.735c-.281,0-.417.463-.417,1.39v.183c0,.961.147,1.442.417,1.442h5.808a3.854,3.854,0,0,0,2.258-.555,4.2,4.2,0,0,0,1.821-1.722,4.7,4.7,0,0,0,1.876,1.722,16.417,16.417,0,0,0,4.519.555h.354c.253,0,.383-.485.383-1.442v-.183c0-.923-.126-1.39-.383-1.39h-.371c-1.236,0-3.7-.275-4.233-.8a3.365,3.365,0,0,1-.807-2.471v-4.32h-2.865v4.32c0,1.11.067,1.934-.568,2.465s-.491.807-1.9.807Zm39.5,0c-.274,0-.417.463-.417,1.39v.183c0,.961.143,1.442.417,1.442h4.039a9.014,9.014,0,0,0,3.438-.555,5.18,5.18,0,0,0,2.213-1.722,4.685,4.685,0,0,0,1.877,1.722,6.656,6.656,0,0,0,2.946.555h.354c.257,0,.383-.48.383-1.442v-.183c0-.927-.126-1.39-.383-1.39h-.366a3.688,3.688,0,0,1-2.666-.8,3.331,3.331,0,0,1-.807-2.471v-4.32h-2.866v4.32a3.03,3.03,0,0,1-.961,2.465,4.774,4.774,0,0,1-3.078.807Zm14.7,0h4.748a3.811,3.811,0,0,0,2.569-.72,3.244,3.244,0,0,0,.812-2.517v-4.926h2.917v4.943q0,6.238-6.287,6.235h-4.759c-.274,0-.417-.48-.417-1.442v-.183C1066.649,163.849,1066.792,163.386,1067.066,163.386Zm-37.752,0h10.356q4.188,0,4.187-2.248c0-.623-.976-1.676-2.566-2.7l-2.054-1.318c-2.024-1.865,6.4-3.451,9.39-7.371l-6.751,5.735,6.375,5.3c1.737,1.444,2.781,2.6,3.891,2.6h.4c.257,0,.383.463.383,1.39v.183c0,.961-.126,1.442-.383,1.442h-.252q-3.406,0-5.864-3.369l-.034-.052c-.761,2.283-3.019,3.421-6.756,3.421h-10.322" transform="translate(-960.191 -134.012)" fill="#04165d" stroke="#04165d" stroke-miterlimit="22.926" stroke-width="0.257" fill-rule="evenodd"/>
    <path id="Path_66" data-name="Path 66" d="M1039.568,162.2a2.523,2.523,0,0,0,1.753,2.578,2.575,2.575,0,0,0,3.071-.728l24.445-27.15a2.726,2.726,0,0,0,.735-2.009,2.829,2.829,0,0,0-2.928-2.636,2.713,2.713,0,0,0-1.922.94l-19.619,21.79,0-9.348a2.771,2.771,0,0,0-2.782-2.758,2.574,2.574,0,0,0-1.948.8,2.727,2.727,0,0,0-.816,1.973Z" transform="translate(-968.179 -132.251)" fill="#4af3f8" fill-rule="evenodd"/>
    <path id="Path_67" data-name="Path 67" d="M1086.427,149.354a2.218,2.218,0,1,1-2.218,2.219A2.218,2.218,0,0,1,1086.427,149.354Z" transform="translate(-972.673 -133.972)" fill="#4af3f8" fill-rule="evenodd"/>
    <path id="Path_68" data-name="Path 68" d="M1092.395,149.354a2.218,2.218,0,1,1-2.218,2.219A2.218,2.218,0,0,1,1092.395,149.354Z" transform="translate(-973.274 -133.972)" fill="#4af3f8" fill-rule="evenodd"/>
    <path id="Path_69" data-name="Path 69" d="M1019.167,172.459a2.218,2.218,0,1,1-2.218,2.219A2.218,2.218,0,0,1,1019.167,172.459Z" transform="translate(-965.904 -136.297)" fill="#4af3f8" fill-rule="evenodd"/>
    <path id="Path_70" data-name="Path 70" d="M1025.136,172.459a2.218,2.218,0,1,1-2.218,2.219A2.218,2.218,0,0,1,1025.136,172.459Z" transform="translate(-966.505 -136.297)" fill="#4af3f8" fill-rule="evenodd"/>
    <path id="Path_71" data-name="Path 71" d="M973.089,149.354a2.218,2.218,0,1,1-2.219,2.219A2.218,2.218,0,0,1,973.089,149.354Z" transform="translate(-961.265 -133.972)" fill="#4af3f8" fill-rule="evenodd"/>
    <path id="Path_72" data-name="Path 72" d="M979.057,149.354a2.218,2.218,0,1,1-2.218,2.219A2.218,2.218,0,0,1,979.057,149.354Z" transform="translate(-961.866 -133.972)" fill="#4af3f8" fill-rule="evenodd"/>
    <path id="Path_73" data-name="Path 73" d="M1022.119,177.151a2.218,2.218,0,1,1-2.218,2.218A2.218,2.218,0,0,1,1022.119,177.151Z" transform="translate(-966.201 -136.77)" fill="#4af3f8" fill-rule="evenodd"/>
    <rect id="Rectangle_380" data-name="Rectangle 380" width="1.19" height="2.943" transform="translate(106.241 29.374)" fill="#04165d" stroke="#04165d" stroke-miterlimit="22.926" stroke-width="0.257"/>
    <rect id="Rectangle_381" data-name="Rectangle 381" width="1.19" height="2.943" transform="translate(91.88 29.374)" fill="#04165d" stroke="#04165d" stroke-miterlimit="22.926" stroke-width="0.257"/>
    <rect id="Rectangle_382" data-name="Rectangle 382" width="1.19" height="2.943" transform="translate(68.529 29.374)" fill="#04165d" stroke="#04165d" stroke-miterlimit="22.926" stroke-width="0.257"/>
  </g>
</svg>
