<svg id="repair" xmlns="http://www.w3.org/2000/svg" width="28.682" height="28.697" viewBox="0 0 28.682 28.697">
  <path id="Path_56" data-name="Path 56" d="M79.687,564.768a4.942,4.942,0,0,0,1.213-.018,3.8,3.8,0,0,0,1.565-.65c1.13-1.007,2.171-2.114,3.232-3.2a1.37,1.37,0,0,1,2.491.839,10.384,10.384,0,1,1-8.364-8.475,1.654,1.654,0,0,1,1.125.861,1.776,1.776,0,0,1-.364,1.441c-1.041,1.172-2.234,2.208-3.279,3.376a2.937,2.937,0,0,0-.638,1.564,21.994,21.994,0,0,0-.023,2.839,1.3,1.3,0,0,0,1.418,1.416C78.6,564.782,79.145,564.768,79.687,564.768Z" transform="translate(-59.636 -553.075)" fill="#f5f5f5"/>
  <path id="Path_57" data-name="Path 57" d="M39.978,613.037a13.424,13.424,0,0,0,7.1,6.949c-.419.343-.749.57-1.029.848-2.13,2.116-4.233,4.258-6.378,6.358a4.982,4.982,0,0,1-8.464-2.629,4.292,4.292,0,0,1,1.035-3.937C34.754,618.056,37.367,615.587,39.978,613.037Z" transform="translate(-31.111 -600.022)" fill="#f5f5f5"/>
</svg>
