<svg xmlns="http://www.w3.org/2000/svg" width="25.346" height="25" viewBox="0 0 25.346 25">
  <g id="Trailing_icon" data-name="Trailing icon" transform="translate(0 0.274)">
    <rect id="Boundary" width="25" height="25" transform="translate(0.346 -0.274)" fill="none"/>
    <path id="_Color" data-name=" ↳Color" d="M11.322,15.44A12.075,12.075,0,0,1,4.4,13.274,12.183,12.183,0,0,1,0,7.719a12.165,12.165,0,0,1,22.644,0,12.183,12.183,0,0,1-4.4,5.555A12.075,12.075,0,0,1,11.322,15.44Zm0-12.866a5.146,5.146,0,1,0,5.147,5.146A5.152,5.152,0,0,0,11.322,2.573Zm0,8.235a3.088,3.088,0,1,1,3.089-3.089A3.092,3.092,0,0,1,11.322,10.808Z" transform="translate(0 4.969)" fill="#daa210"/>
  </g>
</svg>
