<svg xmlns="http://www.w3.org/2000/svg" xmlns:xlink="http://www.w3.org/1999/xlink" width="39.663" height="39.62" viewBox="0 0 39.663 39.62">
  <defs>
    <linearGradient id="linear-gradient" x1="1.836" y1="1.621" x2="0.126" y2="0.191" gradientUnits="objectBoundingBox">
      <stop offset="0" stop-color="#75c9db"/>
      <stop offset="1" stop-color="#04165d"/>
    </linearGradient>
  </defs>
  <path id="telegram-icon" d="M1209.963,769.03a19.334,19.334,0,0,1,19.332,19.29h0v.04h0a19.332,19.332,0,0,1-38.663,0h0v-.04h0a19.33,19.33,0,0,1,19.332-19.29Zm-5.762,29.932,3.813-3.967-3.708-2.8,13.39-10.542-1.836,1.513c-2.16,1.777-6.48,5.334-8.633,7.126a20.822,20.822,0,0,0-2.134,1.83c.007.013.007.013,1.818,1.345s5.431,4,7.359,5.289,2.16,1.217,2.348,1.133a1.437,1.437,0,0,0,.453-.3c.123-.123.227-.279,1.1-3.655s2.516-9.972,3.349-13.482.86-3.939.763-4.23a.774.774,0,0,0-.556-.512c-.239-.063-.5-.038-5.083,1.533s-13.5,4.688-17.965,6.324-4.494,1.791-4.474,1.947.084.31,1.319.782,3.64,1.261,4.837,1.656,1.184.394,1.177.394-.006,0,2.742-1.494,8.245-4.482,10.993-5.976l2.748-1.494-.272.224h0l-15.88,9.118,2.335,8.228Zm22.015-10.622a16.25,16.25,0,1,0-4.759,11.471A16.2,16.2,0,0,0,1226.215,788.34Z" transform="translate(-1190.131 -768.53)" stroke="rgba(0,0,0,0)" stroke-width="1" fill-rule="evenodd" fill="url(#linear-gradient)"/>
</svg>
