<svg id="trashVoice" xmlns="http://www.w3.org/2000/svg" width="23.36" height="29.507" viewBox="0 0 23.36 29.507">
  <path id="_25_Basket" data-name="25 Basket" d="M17.378,29.507H5.988A3.074,3.074,0,0,1,2.914,26.6L1.843,6.762a1.844,1.844,0,0,1,0-3.689H8.606a3.074,3.074,0,0,1,6.147,0h6.764a1.844,1.844,0,0,1,0,3.689L20.446,26.6A3.073,3.073,0,0,1,17.378,29.507ZM14.753,9.836a1.23,1.23,0,0,0-1.228,1.228v12.3a1.229,1.229,0,1,0,2.459,0v-12.3A1.231,1.231,0,0,0,14.753,9.836Zm-6.147,0a1.23,1.23,0,0,0-1.228,1.228v12.3a1.229,1.229,0,1,0,2.459,0v-12.3A1.231,1.231,0,0,0,8.606,9.836Z" transform="translate(0 0)" fill="#cbcbcb"/>
</svg>
