<svg xmlns="http://www.w3.org/2000/svg" xmlns:xlink="http://www.w3.org/1999/xlink" width="47.368" height="38.034" viewBox="0 0 47.368 38.034">
  <defs>
    <linearGradient id="linear-gradient" x1="1.836" y1="1.621" x2="0.126" y2="0.191" gradientUnits="objectBoundingBox">
      <stop offset="0" stop-color="#75c9db"/>
      <stop offset="1" stop-color="#04165d"/>
    </linearGradient>
  </defs>
  <path id="twiter-icon" d="M1271.333,790.24l.134.146.174.14a9.264,9.264,0,0,0,1.943,1.18c.15.068.787.292.863.354l.066.09a.259.259,0,0,1,.014.033.435.435,0,0,1,0,.208H1272.1a5.951,5.951,0,0,0-.9.012s.013-.026,0,.008l-.02.039a.772.772,0,0,0-.009.345c.012.23.014.106-.01.123.154,0,.147-.132.249.035l.037.188a.392.392,0,0,0,.032.274c.058.082.013.025.108.073l.162.088c.05.043.51.928.6,1.073a9.48,9.48,0,0,0,2.512,2.633,9.264,9.264,0,0,0,5.153,1.707,15.386,15.386,0,0,1-2.65,1.758,17.958,17.958,0,0,1-3.112,1.326,18.771,18.771,0,0,1-6.845.874c-.348-.018-.746-.083-1.082-.078l.043.05a24.853,24.853,0,0,0,2.312,1.323,26.349,26.349,0,0,0,8.578,2.607,27.9,27.9,0,0,0,13.007-1.5,24.909,24.909,0,0,0,7.081-4.1c.341-.273.711-.592,1-.87.339-.327.642-.584.955-.916a27.63,27.63,0,0,0,3.316-4.128c.507-.784.927-1.5,1.377-2.361a16.25,16.25,0,0,0,1.141-2.574l.115-.186c.032-.077.046-.126.074-.2l.447-1.264c.187-.553.359-1.155.512-1.752a23.528,23.528,0,0,0,.7-3.9,35.367,35.367,0,0,0,.131-3.819l1.285-1c.058-.11.8-.764.928-.892a18.342,18.342,0,0,0,2.4-2.94l-1.236.483c-.675.237-3.684,1.108-4.009.923a9.206,9.206,0,0,0,1.309-.975,10.622,10.622,0,0,0,1.1-1.155,9.068,9.068,0,0,0,1.587-2.973,6.441,6.441,0,0,0-.684.365,17.8,17.8,0,0,1-2.083.964,15.5,15.5,0,0,1-3.158.892,9.359,9.359,0,0,0-7.927-2.867c-.1.037-.769.13-.989.179a9.809,9.809,0,0,0-.97.282,9.351,9.351,0,0,0-6.2,9.843c.039.378.138.745.165,1.1a26.4,26.4,0,0,1-11.3-3.179,27.212,27.212,0,0,1-6.206-4.669l-1.286-1.4a3.575,3.575,0,0,0-.435-.489,9.289,9.289,0,0,0-1.189,3.513,10.58,10.58,0,0,0,.395,4.194.983.983,0,0,0,.013.492.342.342,0,0,1,.018.1c0,.113-.009.1-.055.148.008,0,.021,0,.025.008l.208.012a1.252,1.252,0,0,1,.065.539c.137.066.084,0,.247.065.072.233-.014.251.025.532l.274,0,0,.263.186.054c-.04.078-.077.086-.041.1v-.039c.2.035.109.035.136.461.253,0,.171-.033.195-.075a.335.335,0,0,0,.163.179c-.149-.013-.086.039-.065.156l.254.039.057.208c.032,0,.057-.056.128.038.095.127.048-.115.068.182l-2.233-.007c-.089,0-.157.033-.26.047l-.016.82c.046.151-.025.055.085.137a9.848,9.848,0,0,0,1.076,3.646A8.7,8.7,0,0,0,1271.333,790.24Z" transform="translate(-1265.254 -769.558)" stroke="rgba(0,0,0,0)" stroke-width="1" fill-rule="evenodd" fill="url(#linear-gradient)"/>
</svg>
