<svg xmlns="http://www.w3.org/2000/svg" xmlns:xlink="http://www.w3.org/1999/xlink" width="38.033" height="38.033" viewBox="0 0 38.033 38.033">
  <defs>
    <linearGradient id="linear-gradient" x1="1.836" y1="1.621" x2="0.126" y2="0.191" gradientUnits="objectBoundingBox">
      <stop offset="0" stop-color="#75c9db"/>
      <stop offset="1" stop-color="#04165d"/>
    </linearGradient>
  </defs>
  <path id="Path_105" data-name="Path 105" d="M965.816,770.224H991.6a5.643,5.643,0,0,1,5.626,5.625v25.783a5.642,5.642,0,0,1-5.626,5.625H965.816a5.642,5.642,0,0,1-5.625-5.625V775.849a5.643,5.643,0,0,1,5.625-5.625Zm6.449,28.068-.593-1.1a12.087,12.087,0,0,0-2.448,1.418,1.829,1.829,0,0,0,.921.8,1.577,1.577,0,0,0,.566.518,13.235,13.235,0,0,0,4.424,2.088,6.951,6.951,0,0,0-.737-.853,9.586,9.586,0,0,1-.768-.906c-.264-.328-.46-.606-.709-.967-.21-.3-.425-.737-.655-1.006Zm15.752.485.4-.312a10.961,10.961,0,0,0-2.8-1.483,12.117,12.117,0,0,1-1.58,2.744c-.884,1.265-1.25,1.449-1.936,2.333a12.652,12.652,0,0,0,2.5-.865,11.017,11.017,0,0,0,3.422-2.418Zm-10.176-2.03v-1.114a28.094,28.094,0,0,0-4.5.848,2.708,2.708,0,0,0,.577,1.062A11.037,11.037,0,0,0,975.674,800a8.282,8.282,0,0,0,2.166,2v-5.251Zm5.837.34.307-.671a7.072,7.072,0,0,0-2.06-.565,13.8,13.8,0,0,0-2.342-.236l.015,6.293.614-.539,2.741-3.141c.236-.375.464-.77.725-1.142Zm-5.838-5.911v-1.061l-6.3,0a16.471,16.471,0,0,0,.4,2.624c.094.406.181.749.306,1.152.269.866.19,1,.565.979a17.172,17.172,0,0,1,5.022-.986l.005-2.711Zm14.4-.034.141-1.038-4.913.063c-.219,2.924-.606,3.044-1.093,5.206.361.119.437.257.823.271l2.4,1.458a13.235,13.235,0,0,0,2.643-5.962Zm-22.35.036-.1-1.055-4.751.022a13.533,13.533,0,0,0,1.342,4.686,10.641,10.641,0,0,0,1.607,2.475,19.676,19.676,0,0,1,2.981-1.717,32.794,32.794,0,0,1-1.08-4.411Zm15.722-.1.11-.964-6.143.018.016,3.563c.121.176.057.178.7.217a21.252,21.252,0,0,1,4.424.811,14.579,14.579,0,0,0,.891-3.645Zm-6.029-4.189,0,1.466.616.016,5.582,0-.269-2.659a2.915,2.915,0,0,0-.318-1.19l-.162-.908c-.838.174-1.633.467-2.537.644a27.362,27.362,0,0,1-2.908.345v2.289Zm-1.746-1.32,0-1.01c-3.149-.162-3.725-.8-5.49-1.111-.572.925-.72,3.485-.871,4.7.207.434.089.127.254.192.293.115,5.762.034,6.109.032v-2.8ZM990.7,782.05l-.621-1.059c-1.119.545-2.1,1.553-3.422,1.9l.512,2.055.4,3.4.513.015,4.365-.006a13.5,13.5,0,0,0-.927-4.612l-.824-1.7Zm-20.21,1.243.214-.625a9.515,9.515,0,0,1-1.643-.869,18.139,18.139,0,0,0-1.529-1,13.227,13.227,0,0,0-2.555,7.57l.7,0h4.061a27.073,27.073,0,0,1,.757-5.076Zm9.656-.5a19.112,19.112,0,0,0,4.232-.835,11.385,11.385,0,0,0-1.771-3.118,14.033,14.033,0,0,0-3.011-3.238l-.011,7.2.561-.011Zm-2.309-5.709-.008-1.589a15.405,15.405,0,0,0-4.862,6.29l.967.305a15.39,15.39,0,0,0,3.888.708l.014-5.714Zm10.933,2.583c.163-.115.148.183.124-.228-.257-.2-.428-.43-.686-.668a14.011,14.011,0,0,0-6.11-3.362,13.905,13.905,0,0,0,1.1,1.225,22.427,22.427,0,0,1,2.221,3.354,7.907,7.907,0,0,0,.643,1.26,10.727,10.727,0,0,0,2.71-1.581Zm-15.361-2.234a7.459,7.459,0,0,0,.812-.92c.18-.219.788-.86.877-1.03a12.61,12.61,0,0,0-3.6,1.547,10.687,10.687,0,0,0-2.814,2.421,8.133,8.133,0,0,0,.869.516,7.089,7.089,0,0,0,1.751,1.044c.232-.262.777-1.439,1-1.818.326-.563.913-1.29,1.114-1.759Zm2.716-4.081-.153.076c-.327.132-1.674.383-2.7.773a15.51,15.51,0,0,0-10.047,14.936,21.542,21.542,0,0,0,.561,3.825,27.29,27.29,0,0,0,1.154,2.9c.559,1.061,1.162,1.753,1.646,2.61l1.678,1.707a15.491,15.491,0,0,0,24.893-17.074,21.433,21.433,0,0,0-1.317-2.631c-2.543-4.072-5.659-5.152-6.1-5.668-.33-.019-1.878-.743-2.493-.916a19.566,19.566,0,0,1-2.733-.647,13.614,13.614,0,0,1-2.3-.013A13.818,13.818,0,0,1,976.126,773.356Z" transform="translate(-959.691 -769.724)" stroke="rgba(0,0,0,0)" stroke-width="1" fill-rule="evenodd" fill="url(#linear-gradient)"/>
</svg>
