<svg xmlns="http://www.w3.org/2000/svg" width="37.549" height="50.9" viewBox="0 0 37.549 50.9">
  <path id="whitesendVoice-icon" d="M16.167,48.25V40.1A18.988,18.988,0,0,1,0,21.208a2.629,2.629,0,0,1,2.607-2.65,2.629,2.629,0,0,1,2.607,2.65A13.675,13.675,0,0,0,18.774,34.995,13.674,13.674,0,0,0,32.333,21.208a2.608,2.608,0,1,1,5.215,0A18.988,18.988,0,0,1,21.382,40.1V48.25a2.608,2.608,0,1,1-5.215,0Zm2.22-17.5a9,9,0,0,1-9-9V9a9,9,0,0,1,9-9h.775a9,9,0,0,1,9,9V21.753a9,9,0,0,1-9,9Z" fill="#f5f5f5"/>
</svg>
