<svg xmlns="http://www.w3.org/2000/svg" width="12.895" height="17.794" viewBox="0 0 12.895 17.794">
  <path id="_12_Brightness_2" data-name="12 Brightness_2" d="M11.939,20.572a5.889,5.889,0,0,1-5.887-5.832c0-2.461,3.523-8.143,5.038-10.472a1.088,1.088,0,0,1,1.819,0c1.515,2.327,5.038,8.007,5.038,10.472a5.887,5.887,0,0,1-5.886,5.832h-.122ZM11.65,6.955a.352.352,0,0,0-.3.171C8.734,11.4,7.8,13.86,7.8,14.739a4.114,4.114,0,0,0,3.813,4.083l.034,0a.351.351,0,0,0,.35-.352V7.309a.349.349,0,0,0-.349-.354Z" transform="translate(-5.553 -3.277)" fill="#ff4d4d" stroke="rgba(0,0,0,0)" stroke-width="1"/>
</svg>
