<svg xmlns="http://www.w3.org/2000/svg" width="24" height="24" viewBox="0 0 24 24"><circle cx="12" cy="12" r="12" fill="#5fe2e9"/><rect width="12" height="12" rx="3" transform="translate(5.576 7)" fill="#f9f8f7"/><g transform="translate(7.576 4)" fill="#f9f8f7" stroke="#5fe2e9" stroke-width="1"><path d="M3,0h7a3,3,0,0,1,3,3v7a3,3,0,0,1-3,3H2a2,2,0,0,1-2-2V3A3,3,0,0,1,3,0Z" stroke="none"/><path d="M3,.5h7A2.5,2.5,0,0,1,12.5,3v7A2.5,2.5,0,0,1,10,12.5H2A1.5,1.5,0,0,1,.5,11V3A2.5,2.5,0,0,1,3,.5Z" fill="none"/></g></svg>