<svg xmlns="http://www.w3.org/2000/svg" width="25" height="25" viewBox="0 0 25 25">
  <path id="Path_1123" data-name="Path 1123" d="M12,0A12,12,0,1,1,0,12,12,12,0,0,1,12,0Z" transform="translate(0.5 0.5)" fill="#cbcbcb" stroke="rgba(0,0,0,0)" stroke-width="1"/>
  <path id="inbox-in" d="M4.679,5.494a.642.642,0,0,1,.907-.907L7.058,6.058V2.383a.642.642,0,1,1,1.283,0V6.058L9.812,4.587a.642.642,0,0,1,.907.907L8.606,7.607a1.279,1.279,0,0,1-.9.375H7.693a1.279,1.279,0,0,1-.9-.375L4.679,5.494Zm8.794,2.03H11.549a1.284,1.284,0,0,0-1.283,1.283A1.284,1.284,0,0,1,8.982,10.09H6.416A1.284,1.284,0,0,1,5.133,8.807,1.284,1.284,0,0,0,3.85,7.524H1.925A1.927,1.927,0,0,0,0,9.449v2.566a3.212,3.212,0,0,0,3.208,3.208H12.19A3.212,3.212,0,0,0,15.4,12.015V9.449A1.927,1.927,0,0,0,13.474,7.524Z" transform="translate(4.801 3.462)" fill="#f5f5f5"/>
</svg>
