<svg xmlns="http://www.w3.org/2000/svg" width="20.854" height="27.143" viewBox="0 0 20.854 27.143">
  <g id="_3_Pointer_2" data-name="3 Pointer_2" transform="translate(1 1)" fill="none" stroke-linecap="square" stroke-linejoin="bevel">
    <path d="M14.792,10.167a1.048,1.048,0,0,1,0-1.477l3.756-3.761a1.048,1.048,0,0,0-.739-1.786H2.619V1.31A1.31,1.31,0,0,0,0,1.31V23.833a1.31,1.31,0,0,0,2.619,0V15.714H17.81a1.048,1.048,0,0,0,.739-1.786Z" stroke="none"/>
    <path d="M 1.309528350830078 -1.9073486328125e-06 C 0.5862979888916016 -1.9073486328125e-06 -1.9073486328125e-06 0.5862979888916016 -1.9073486328125e-06 1.309528350830078 L -1.9073486328125e-06 23.83333778381348 C -1.9073486328125e-06 24.55655860900879 0.5862979888916016 25.14285850524902 1.309528350830078 25.14285850524902 C 2.032756805419922 25.14285850524902 2.619047164916992 24.55655860900879 2.619047164916992 23.83333778381348 L 2.619047164916992 15.71428871154785 L 17.80952835083008 15.71428871154785 C 18.23187828063965 15.71250820159912 18.61185836791992 15.45728874206543 18.77324676513672 15.06698799133301 C 18.93463706970215 14.67667865753174 18.84585762023926 14.22762870788574 18.54809761047363 13.92809867858887 L 14.79237747192383 10.16713809967041 C 14.38619804382324 9.758528709411621 14.38619804382324 9.098608016967773 14.79237747192383 8.689998626708984 L 18.54809761047363 4.929048538208008 C 18.84585762023926 4.629508972167969 18.93463706970215 4.18046760559082 18.77324676513672 3.790159225463867 C 18.61185836791992 3.399848937988281 18.23187828063965 3.144628524780273 17.80952835083008 3.142858505249023 L 2.619047164916992 3.142858505249023 L 2.619047164916992 1.309528350830078 C 2.619047164916992 0.5862979888916016 2.032756805419922 -1.9073486328125e-06 1.309528350830078 -1.9073486328125e-06 M 1.309528350830078 -1.000001907348633 C 2.582998275756836 -1.000001907348633 3.619047164916992 0.03604888916015625 3.619047164916992 1.309528350830078 L 3.619047164916992 2.142858505249023 L 17.80952835083008 2.142858505249023 C 18.64162826538086 2.146337509155273 19.38099670410156 2.642948150634766 19.69736671447754 3.408048629760742 C 20.01371765136719 4.173118591308594 19.84098815917969 5.046878814697266 19.2573070526123 5.634048461914062 L 15.49997711181641 9.396608352661133 C 15.48318767547607 9.413508415222168 15.48318767547607 9.443628311157227 15.50158786773682 9.462148666381836 L 19.25569725036621 13.2214879989624 C 19.84098815917969 13.81024837493896 20.01371765136719 14.68400859832764 19.69736671447754 15.44909858703613 C 19.38099670410156 16.21417808532715 18.64163780212402 16.71078872680664 17.8137378692627 16.71427917480469 L 3.619047164916992 16.71428680419922 L 3.619047164916992 23.83333778381348 C 3.619047164916992 25.10680770874023 2.582998275756836 26.14285850524902 1.309528350830078 26.14285850524902 C 0.03604698181152344 26.14285850524902 -1.000001907348633 25.10680770874023 -1.000001907348633 23.83333778381348 L -1.000001907348633 1.309528350830078 C -1.000001907348633 0.03604888916015625 0.03604698181152344 -1.000001907348633 1.309528350830078 -1.000001907348633 Z" stroke="none" fill="#000"/>
  </g>
</svg>
