<svg xmlns="http://www.w3.org/2000/svg" xmlns:xlink="http://www.w3.org/1999/xlink" width="25" height="25" viewBox="0 0 25 25"><defs><style>.a{stroke:rgba(0,0,0,0);stroke-miterlimit:10;fill:url(#a);}.b{fill:#fff;}</style><radialGradient id="a" cx="0.5" cy="0.5" r="0.5" gradientUnits="objectBoundingBox"><stop offset="0" stop-color="#77fbff"/><stop offset="1" stop-color="#36c5cb"/></radialGradient></defs><g transform="translate(0.5 0.5)"><circle class="a" cx="12" cy="12" r="12"/><path class="b" d="M16.1,17.428H4.9a1.569,1.569,0,0,1-1.473-1.647V7.219A1.569,1.569,0,0,1,4.9,5.571H16.1a1.409,1.409,0,0,1,1.042.483,1.739,1.739,0,0,1,.431,1.164v8.563a1.763,1.763,0,0,1-.431,1.164A1.409,1.409,0,0,1,16.1,17.428ZM5.788,7.56a.542.542,0,0,0-.252.063.666.666,0,0,0-.336.548.691.691,0,0,0,.261.6L9.339,11.73a1.9,1.9,0,0,0,2.34,0L15.547,8.75v.017a.689.689,0,0,0,.261-.6.665.665,0,0,0-.336-.548.534.534,0,0,0-.252-.063.546.546,0,0,0-.339.12L11,10.644a.809.809,0,0,1-1,0L6.127,7.679A.544.544,0,0,0,5.788,7.56Z" transform="translate(1.57 0.429)"/></g></svg>