<svg xmlns="http://www.w3.org/2000/svg" xmlns:xlink="http://www.w3.org/1999/xlink" width="25" height="25" viewBox="0 0 25 25"><defs><style>.a,.b{stroke:rgba(0,0,0,0);stroke-miterlimit:10;}.a{fill:url(#a);}.b{fill:#fff;}</style><radialGradient id="a" cx="0.5" cy="0.5" r="0.5" gradientUnits="objectBoundingBox"><stop offset="0" stop-color="#ffc326"/><stop offset="0.866" stop-color="#ff7c00"/><stop offset="1" stop-color="#e67205"/></radialGradient></defs><g transform="translate(0.5 0.5)"><circle class="a" cx="12" cy="12" r="12"/><path class="b" d="M.7,14.745a.7.7,0,0,1-.678-.884L1.4,8.7a1.788,1.788,0,0,1,.456-.787l7.4-7.4a1.756,1.756,0,0,1,2.482,0L14.23,3a1.757,1.757,0,0,1,0,2.482l-7.4,7.408a1.772,1.772,0,0,1-.786.453L.884,14.721A.7.7,0,0,1,.7,14.745Zm9.8-12.7a.7.7,0,0,0-.5.2L3.268,8.995a.7.7,0,1,0,.993.994L11,3.245a.7.7,0,0,0-.5-1.2Z" transform="translate(4.628 4.627)"/></g></svg>