<svg xmlns="http://www.w3.org/2000/svg" xmlns:xlink="http://www.w3.org/1999/xlink" width="24" height="24" viewBox="0 0 24 24"><defs><style>.a{fill:#f5f5f5;}.b{stroke:rgba(0,0,0,0);stroke-miterlimit:10;fill:url(#a);}</style><linearGradient id="a" x1="0.5" x2="0.5" y2="1" gradientUnits="objectBoundingBox"><stop offset="0" stop-color="#2df9ff"/><stop offset="1" stop-color="#36c5cb"/></linearGradient></defs><circle class="a" cx="12" cy="12" r="12"/><path class="b" d="M5.242,2.273V.565A.564.564,0,0,0,4.289.156L.176,4.064a.564.564,0,0,0,0,.818L4.289,8.789a.564.564,0,0,0,.953-.409V6.672c3.18,0,4.912,2.174,6,4.562a.282.282,0,0,0,.536-.135C11.442,6.66,9.638,2.908,5.242,2.273Z" transform="translate(8.112 2.803)"/><path class="b" d="M5.242,2.273V.565A.564.564,0,0,0,4.289.156L.176,4.064a.564.564,0,0,0,0,.818L4.289,8.789a.564.564,0,0,0,.953-.409V6.672c3.18,0,4.912,2.174,6,4.562a.282.282,0,0,0,.536-.135C11.442,6.66,9.638,2.908,5.242,2.273Z" transform="translate(15.887 21.197) rotate(180)"/></svg>