<svg xmlns="http://www.w3.org/2000/svg" xmlns:xlink="http://www.w3.org/1999/xlink" width="25" height="25" viewBox="0 0 25 25">
  <defs>
    <radialGradient id="radial-gradient" cx="0.5" cy="0.5" r="0.5" gradientUnits="objectBoundingBox">
      <stop offset="0" stop-color="#ffc326"/>
      <stop offset="0.866" stop-color="#ff7c00"/>
      <stop offset="1" stop-color="#e67205"/>
    </radialGradient>
  </defs>
  <g id="Group_1997" data-name="Group 1997" transform="translate(-38.5 -5.681)">
    <g id="Component_473_2" data-name="Component 473 – 2" transform="translate(39 6.181)">
      <circle id="Ellipse_25" data-name="Ellipse 25" cx="12" cy="12" r="12" stroke="rgba(0,0,0,0)" stroke-miterlimit="10" stroke-width="1" fill="url(#radial-gradient)"/>
      <g id="_Icons_12_Settings" data-name="_Icons / 12 Settings" transform="translate(4.762 4.367)" style="isolation: isolate">
        <path id="_12_Settings" data-name="12 Settings" d="M7.238,15.265a7.858,7.858,0,0,1-1.388-.124.634.634,0,0,1-.522-.636V13.97a.634.634,0,0,0-.392-.585,6.129,6.129,0,0,1-1.535-.89.638.638,0,0,0-.707-.048l-.465.27a.639.639,0,0,1-.8-.14,7.459,7.459,0,0,1-.723-1C.654,11.5.6,11.4.548,11.31a7.348,7.348,0,0,1-.513-1.134.637.637,0,0,1,.283-.757L.78,9.152A.632.632,0,0,0,1.1,8.516a6.132,6.132,0,0,1,0-1.767A.634.634,0,0,0,.78,6.114L.318,5.847a.635.635,0,0,1-.283-.756,7.282,7.282,0,0,1,.51-1.138c.052-.1.111-.2.156-.27a7.447,7.447,0,0,1,.722-1,.638.638,0,0,1,.806-.137l.468.267A.638.638,0,0,0,3.4,2.768a6.136,6.136,0,0,1,1.531-.887.632.632,0,0,0,.4-.585V.759A.634.634,0,0,1,5.862.124a7.843,7.843,0,0,1,2.777,0,.632.632,0,0,1,.522.636V1.3a.634.634,0,0,0,.392.585,6.149,6.149,0,0,1,1.522.887.638.638,0,0,0,.707.048l.41-.235a.66.66,0,0,1,.863.1,7.377,7.377,0,0,1,.707,1c.046.075.1.173.156.27a7.265,7.265,0,0,1,.512,1.134.634.634,0,0,1-.283.762l-.4.232a.663.663,0,0,0-.373.671,6.131,6.131,0,0,1,0,1.767.632.632,0,0,0,.318.636l.466.267a.637.637,0,0,1,.283.757,7.342,7.342,0,0,1-.507,1.141c-.044.081-.1.172-.156.269a7.445,7.445,0,0,1-.723,1,.638.638,0,0,1-.808.136l-.465-.269a.638.638,0,0,0-.7.048,6.136,6.136,0,0,1-1.531.887.634.634,0,0,0-.4.585v.536a.634.634,0,0,1-.522.636A7.858,7.858,0,0,1,7.238,15.265Zm0-10.492A2.859,2.859,0,1,0,10.1,7.633,2.866,2.866,0,0,0,7.237,4.773Z" transform="translate(0 0)" fill="#fff"/>
      </g>
    </g>
  </g>
</svg>
