<svg xmlns="http://www.w3.org/2000/svg" width="24.405" height="24.405" viewBox="0 0 24.405 24.405">
  <path id="_22_Check" data-name="22 Check" d="M12.2,0A12.2,12.2,0,1,0,20.83,3.573,12.2,12.2,0,0,0,12.2,0Z" transform="translate(0.001 0.001)" fill="#4af3f8"/>
  <path id="_29_Update_reset" data-name="29 Update, reset" d="M11.1.994a7.93,7.93,0,0,0-8.083.371L1.856.222A.76.76,0,0,0,1.032.057.749.749,0,0,0,.564.75V4.939a.752.752,0,0,0,.755.749H5.539a.756.756,0,0,0,.7-.462.745.745,0,0,0-.166-.819l-.861-.854a4.941,4.941,0,0,1,5.43.751,4.845,4.845,0,0,1,1.344,5.272A4.925,4.925,0,0,1,2.9,9.952a.758.758,0,0,0-.918-.375L.538,9.99a.754.754,0,0,0-.463.393.744.744,0,0,0-.02.6A7.95,7.95,0,0,0,15.148,9.453,7.848,7.848,0,0,0,11.1.994Z" transform="translate(4.555 4.333)" fill="#fff"/>
</svg>
