<svg xmlns="http://www.w3.org/2000/svg" width="24" height="24" viewBox="0 0 24 24">
  <g id="Group_1379" data-name="Group 1379" transform="translate(-6 -5)">
    <circle id="Ellipse_25" data-name="Ellipse 25" cx="12" cy="12" r="12" transform="translate(6 5)" fill="#cbcbcb"/>
    <g id="_Icons_25_Basket" data-name="_Icons / 25 Basket" transform="translate(11.743 9.097)">
      <path id="_25_Basket" data-name="25 Basket" d="M9.309,15.806h-6.1a1.647,1.647,0,0,1-1.646-1.558L.987,3.622a.988.988,0,0,1,0-1.976H4.61a1.646,1.646,0,0,1,3.293,0h3.623a.988.988,0,0,1,0,1.976l-.573,10.626A1.646,1.646,0,0,1,9.309,15.806ZM7.9,5.269a.659.659,0,0,0-.658.658v6.586a.658.658,0,1,0,1.317,0V5.927A.659.659,0,0,0,7.9,5.269Zm-3.293,0a.659.659,0,0,0-.658.658v6.586a.658.658,0,1,0,1.317,0V5.927A.659.659,0,0,0,4.61,5.269Z" transform="translate(0 0)" fill="#fff"/>
    </g>
  </g>
</svg>
