<svg xmlns="http://www.w3.org/2000/svg" xmlns:xlink="http://www.w3.org/1999/xlink" width="24" height="24" viewBox="0 0 24 24"><defs><style>.a{fill:url(#a);}.b{fill:#fff;}</style><radialGradient id="a" cx="0.5" cy="0.5" r="0.5" gradientUnits="objectBoundingBox"><stop offset="0" stop-color="#ff8080"/><stop offset="1" stop-color="#ff5757"/></radialGradient></defs><circle class="a" cx="12" cy="12" r="12"/><g transform="translate(5.744 4.097)"><path class="b" d="M9.309,15.806h-6.1a1.647,1.647,0,0,1-1.646-1.558L.987,3.622a.988.988,0,0,1,0-1.976H4.61a1.646,1.646,0,0,1,3.293,0h3.623a.988.988,0,0,1,0,1.976l-.573,10.626A1.646,1.646,0,0,1,9.309,15.806ZM7.9,5.269a.659.659,0,0,0-.658.658v6.586a.658.658,0,1,0,1.317,0V5.927A.659.659,0,0,0,7.9,5.269Zm-3.293,0a.659.659,0,0,0-.658.658v6.586a.658.658,0,1,0,1.317,0V5.927A.659.659,0,0,0,4.61,5.269Z"/></g></svg>