<svg xmlns="http://www.w3.org/2000/svg" width="36.514" height="36.493" viewBox="0 0 36.514 36.493">
  <g id="_Icons_10_Shopping_Cart_5" data-name="_Icons / 10 Shopping Cart_5" transform="translate(0 0)">
    <path id="Combined_Shape" data-name="Combined Shape" d="M25.189,33.016a3.472,3.472,0,1,1,3.471,3.476A3.474,3.474,0,0,1,25.189,33.016Zm-15.628,0a3.473,3.473,0,1,1,3.473,3.476A3.476,3.476,0,0,1,9.561,33.016Zm.686-9.834L6.523,4.753a.442.442,0,0,0-.433-.409H2.184a2.172,2.172,0,0,1-2.172-2.4A2.259,2.259,0,0,1,2.3,0H6.09a4.765,4.765,0,0,1,4.686,3.936l.435,2.146H32.133a4.34,4.34,0,0,1,4.34,4.935l-1.5,10.7A4.342,4.342,0,0,1,31,25.458l-16.173,1.2q-.164.012-.325.012A4.343,4.343,0,0,1,10.247,23.182Z" transform="translate(0 0)" fill="currentColor"/>
  </g>
</svg>
