<svg xmlns="http://www.w3.org/2000/svg" width="26.522" height="28.522" viewBox="0 0 28.522 28.522">
  <g id="Group_272" data-name="Group 272" transform="translate(-542 -431)">
    <circle id="Ellipse_25" data-name="Ellipse 25" cx="14.261" cy="14.261" r="14.261" transform="translate(542 431)" fill="#fff"/>
    <g id="_Icons_Check" data-name="_Icons / Check" transform="translate(542 431)">
      <path id="_22_Check" data-name="22 Check" d="M14.262,28.522A14.261,14.261,0,0,1,4.177,4.177,14.261,14.261,0,0,1,24.345,24.345,14.166,14.166,0,0,1,14.262,28.522ZM6.946,11.97a1.548,1.548,0,0,0-1.1.456,1.566,1.566,0,0,0-.082,2.115l5.454,5.453a1.557,1.557,0,0,0,2.2,0l9.349-9.347a1.566,1.566,0,0,0-.082-2.115,1.558,1.558,0,0,0-2.115-.082l-8.25,8.242L7.959,12.344A1.56,1.56,0,0,0,6.946,11.97Z" transform="translate(0)" fill="#37b3b8"/>
    </g>
  </g>
</svg>
